<?xml version="1.0" encoding="UTF-8" standalone="no"?>
<svg
   xmlns:dc="http://purl.org/dc/elements/1.1/"
   xmlns:cc="http://creativecommons.org/ns#"
   xmlns:rdf="http://www.w3.org/1999/02/22-rdf-syntax-ns#"
   xmlns:svg="http://www.w3.org/2000/svg"
   xmlns="http://www.w3.org/2000/svg"
   xmlns:sodipodi="http://sodipodi.sourceforge.net/DTD/sodipodi-0.dtd"
   xmlns:inkscape="http://www.inkscape.org/namespaces/inkscape"
   version="1.1"
   width="76"
   height="76"
   viewBox="0 0 76.00 76.00"
   enable-background="new 0 0 76.00 76.00"
   xml:space="preserve"
   id="svg2"
   inkscape:version="0.48.5 r10040"
   sodipodi:docname="appbar.lightbulb.svg"><metadata
     id="metadata10"><rdf:RDF><cc:Work
         rdf:about=""><dc:format>image/svg+xml</dc:format><dc:type
           rdf:resource="http://purl.org/dc/dcmitype/StillImage" /><dc:title></dc:title></cc:Work></rdf:RDF></metadata><defs
     id="defs8" /><sodipodi:namedview
     pagecolor="#ffffff"
     bordercolor="#666666"
     borderopacity="1"
     objecttolerance="10"
     gridtolerance="10"
     guidetolerance="10"
     inkscape:pageopacity="0"
     inkscape:pageshadow="2"
     inkscape:window-width="1440"
     inkscape:window-height="802"
     id="namedview6"
     showgrid="false"
     inkscape:zoom="8.7830105"
     inkscape:cx="71.457314"
     inkscape:cy="36.273221"
     inkscape:window-x="0"
     inkscape:window-y="0"
     inkscape:window-maximized="1"
     inkscape:current-layer="svg2" /><path
     fill="#000000"
     fill-opacity="1"
     stroke-width="0.2"
     stroke-linejoin="round"
     d="M 34.8333,60.1667L 34.8333,57.3958L 41.1667,58.5833L 41.1667,60.1667L 34.8333,60.1667 Z M 31.6666,55.0209L 31.6666,52.25L 44.3333,53.8334L 44.3333,56.6042L 31.6666,55.0209 Z M 44.3333,51.8542L 31.6666,50.2709L 31.6666,47.5L 44.3333,49.0834L 44.3333,51.8542 Z M 38,17.4167C 44.9956,17.4167 50.6667,23.4422 50.6667,30.875C 50.6667,35.8565 44.3333,40.7324 44.3333,42.5329L 44.3333,47.5L 31.6667,45.9167L 31.6667,42.5329C 31.6667,41.1667 25.3333,35.8565 25.3333,30.875C 25.3333,23.4422 31.0044,17.4167 38,17.4167 Z "
     id="path4"
     inkscape:export-filename="/Users/rob/Dropbox/HKJapan/HomeTabletLocalApp/www/img/bulb-off.png"
     inkscape:export-xdpi="124.89779"
     inkscape:export-ydpi="124.89779" /><path
     style="fill:#000000;fill-opacity:1;stroke-linejoin:round"
     d="m 38.274875,9.7254542 c 0.586369,0 1.061685,0.5170988 1.061685,1.1550128 l 0,3.46504 c 0,0.637797 -0.475316,1.155013 -1.061685,1.155013 -0.586369,0 -1.061686,-0.517216 -1.061686,-1.155013 l 0,-3.46504 c 0,-0.637914 0.475317,-1.1550128 1.061686,-1.1550128 z"
     id="path3096"
     inkscape:connector-curvature="0"
     inkscape:export-filename="/Users/rob/Dropbox/HKJapan/HomeTabletLocalApp/www/img/bulb-off.png"
     inkscape:export-xdpi="124.89779"
     inkscape:export-ydpi="124.89779" /><path
     style="fill:#000000;fill-opacity:1;stroke-linejoin:round"
     d="m 48.66464,12.011575 c 0.507698,0.318899 0.681708,1.025305 0.388576,1.577748 l -1.592528,3.000723 c -0.293237,0.552444 -0.942458,0.74175 -1.450262,0.422851 -0.507804,-0.319014 -0.681814,-1.025421 -0.388683,-1.577863 l 1.592528,-3.000725 c 0.293238,-0.552442 0.942564,-0.741749 1.450369,-0.422734 z"
     id="path3094"
     inkscape:connector-curvature="0"
     inkscape:export-filename="/Users/rob/Dropbox/HKJapan/HomeTabletLocalApp/www/img/bulb-off.png"
     inkscape:export-xdpi="124.89779"
     inkscape:export-ydpi="124.89779" /><path
     style="fill:#000000;fill-opacity:1;stroke-linejoin:round"
     d="m 55.788514,18.954714 c 0.275295,0.5633 0.07867,1.262661 -0.439007,1.56204 l -2.812193,1.62672 c -0.517784,0.299495 -1.160634,0.0857 -1.435823,-0.477483 -0.275295,-0.563299 -0.07878,-1.26266 0.438901,-1.562154 l 2.812298,-1.626721 c 0.517678,-0.299379 1.160529,-0.08559 1.435824,0.477598 z"
     id="path3092"
     inkscape:connector-curvature="0"
     inkscape:export-filename="/Users/rob/Dropbox/HKJapan/HomeTabletLocalApp/www/img/bulb-off.png"
     inkscape:export-xdpi="124.89779"
     inkscape:export-ydpi="124.89779" /><path
     style="fill:#000000;fill-opacity:1;stroke-linejoin:round"
     d="m 57.536777,29.032026 c -0.121987,0.623937 -0.685742,1.022186 -1.259265,0.88959 l -3.115409,-0.720381 c -0.573523,-0.132596 -0.939698,-0.746022 -0.817817,-1.369961 0.121988,-0.623938 0.685743,-1.022187 1.259265,-0.889591 l 3.11541,0.720381 c 0.573523,0.132596 0.939698,0.746024 0.817816,1.369962 z"
     id="path3090"
     inkscape:export-filename="/Users/rob/Dropbox/HKJapan/HomeTabletLocalApp/www/img/bulb-off.png"
     inkscape:export-xdpi="124.89779"
     inkscape:export-ydpi="124.89779" /><path
     style="fill:#000000;fill-opacity:1;stroke-linejoin:round"
     d="m 56.148996,37.674361 c -0.219556,0.591482 -0.838413,0.877232 -1.382102,0.638261 l -2.953078,-1.298005 c -0.543583,-0.238972 -0.806244,-0.912113 -0.586687,-1.503595 0.219662,-0.591483 0.838519,-0.877233 1.382102,-0.638261 l 2.953184,1.298004 c 0.543583,0.238972 0.806244,0.912114 0.586581,1.503596 z"
     id="path3088"
     inkscape:connector-curvature="0"
     inkscape:export-filename="/Users/rob/Dropbox/HKJapan/HomeTabletLocalApp/www/img/bulb-off.png"
     inkscape:export-xdpi="124.89779"
     inkscape:export-ydpi="124.89779" /><path
     style="fill:#000000;fill-opacity:1;stroke-linejoin:round"
     d="m 27.543542,11.66989 c 0.507804,-0.318899 1.157131,-0.129592 1.450262,0.42285 l 1.592528,3.000725 c 0.293238,0.552442 0.119228,1.258849 -0.388577,1.577748 -0.507804,0.319014 -1.15713,0.129708 -1.450262,-0.422736 l -1.592528,-3.000723 c -0.293237,-0.552443 -0.119227,-1.258849 0.388577,-1.577864 z"
     id="path3086"
     inkscape:connector-curvature="0"
     inkscape:export-filename="/Users/rob/Dropbox/HKJapan/HomeTabletLocalApp/www/img/bulb-off.png"
     inkscape:export-xdpi="124.89779"
     inkscape:export-ydpi="124.89779" /><path
     style="fill:#000000;fill-opacity:1;stroke-linejoin:round"
     d="m 19.672086,18.271577 c 0.275295,-0.5633 0.918146,-0.777093 1.435823,-0.477598 l 2.812193,1.626721 c 0.517784,0.299494 0.714302,0.998855 0.439007,1.562039 -0.275295,0.563301 -0.918146,0.777093 -1.435824,0.477598 l -2.812192,-1.62672 c -0.517784,-0.299495 -0.714302,-0.998856 -0.439007,-1.56204 z"
     id="path3084"
     inkscape:export-filename="/Users/rob/Dropbox/HKJapan/HomeTabletLocalApp/www/img/bulb-off.png"
     inkscape:export-xdpi="124.89779"
     inkscape:export-ydpi="124.89779" /><path
     style="fill:#000000;fill-opacity:1;stroke-linejoin:round"
     d="m 17.874411,29.259622 c -0.121881,-0.623938 0.244188,-1.23725 0.817816,-1.369846 l 3.11541,-0.720381 c 0.573523,-0.132711 1.137278,0.265653 1.259159,0.889591 0.121881,0.623939 -0.244188,1.23725 -0.81771,1.369961 l -3.11541,0.720381 c -0.573522,0.132596 -1.137383,-0.265653 -1.259265,-0.889706 z"
     id="path3082"
     inkscape:connector-curvature="0"
     inkscape:export-filename="/Users/rob/Dropbox/HKJapan/HomeTabletLocalApp/www/img/bulb-off.png"
     inkscape:export-xdpi="124.89779"
     inkscape:export-ydpi="124.89779" /><path
     style="fill:#000000;fill-opacity:1;stroke-linejoin:round"
     d="m 18.920517,37.560505 c -0.219662,-0.591482 0.043,-1.264624 0.586688,-1.503596 l 2.953078,-1.298004 c 0.543689,-0.238972 1.162439,0.04677 1.382102,0.638261 0.219662,0.591367 -0.043,1.264623 -0.586688,1.503595 l -2.953078,1.298005 c -0.543583,0.238971 -1.162439,-0.04677 -1.382102,-0.638261 z"
     id="path4-4"
     inkscape:connector-curvature="0"
     inkscape:export-filename="/Users/rob/Dropbox/HKJapan/HomeTabletLocalApp/www/img/bulb-off.png"
     inkscape:export-xdpi="124.89779"
     inkscape:export-ydpi="124.89779" /></svg>