<?xml version="1.0" encoding="UTF-8" standalone="no"?>
<svg
   xmlns:dc="http://purl.org/dc/elements/1.1/"
   xmlns:cc="http://creativecommons.org/ns#"
   xmlns:rdf="http://www.w3.org/1999/02/22-rdf-syntax-ns#"
   xmlns:svg="http://www.w3.org/2000/svg"
   xmlns="http://www.w3.org/2000/svg"
   xmlns:sodipodi="http://sodipodi.sourceforge.net/DTD/sodipodi-0.dtd"
   xmlns:inkscape="http://www.inkscape.org/namespaces/inkscape"
   version="1.1"
   width="76"
   height="76"
   viewBox="0 0 76.00 76.00"
   enable-background="new 0 0 76.00 76.00"
   xml:space="preserve"
   id="svg2"
   inkscape:version="0.48.4 r9939"
   sodipodi:docname="appbar.social.uservoice.svg"><metadata
   id="metadata10"><rdf:RDF><cc:Work
       rdf:about=""><dc:format>image/svg+xml</dc:format><dc:type
         rdf:resource="http://purl.org/dc/dcmitype/StillImage" /><dc:title></dc:title></cc:Work></rdf:RDF></metadata><defs
   id="defs8" /><sodipodi:namedview
   pagecolor="#ffffff"
   bordercolor="#666666"
   borderopacity="1"
   objecttolerance="10"
   gridtolerance="10"
   guidetolerance="10"
   inkscape:pageopacity="0"
   inkscape:pageshadow="2"
   inkscape:window-width="974"
   inkscape:window-height="732"
   id="namedview6"
   showgrid="false"
   inkscape:zoom="3.1052632"
   inkscape:cx="-12.237288"
   inkscape:cy="38"
   inkscape:window-x="461"
   inkscape:window-y="448"
   inkscape:window-maximized="0"
   inkscape:current-layer="svg2" />
	<rect
   style="opacity:1;fill:#767676;fill-opacity:1;stroke:none"
   id="rect2987"
   width="123.01695"
   height="96.288139"
   x="-24.474577"
   y="-9.3389826" /><path
   d="m 43.434322,17.738734 c 4.8095,0 8.7083,8.5065 8.7083,19 0,10.4934 -3.8988,19 -8.7083,19 -1.6972,0 -3.281,-1.0593 -4.6201,-2.8915 -3.0442,-3.2839 -6.207,-8.1919 -10.4216,-8.1919 -3.1666,0 -0.3958,3.1667 -0.3958,6.3334 0,3.1666 0.3958,7.9166 -4.3542,7.9166 -4.75,0 -9.5,-4.75 -7.9166,-6.3333 1.5833,-1.5833 1.5833,-7.9167 1.5833,-7.9167 -4.75,0 -9.5,-3.1666 -9.5,-7.9166 0,-4.75 4.75,-9.5 17.4167,-9.5 12.6666,0 10.2916,-9.5 18.2083,-9.5 z m -8.7083,19 c 0,-4.6664 0.771,-8.9399 2.0502,-12.2471 -2.4147,2.7477 -0.4669,4.3304 -11.398,6.066 -10.2308,0 -14.0673,2.649 -14.0673,6.4856 0,3.8365 4.2324,4.8109 8.0689,4.8109 0,0 1.1875,9.0737 -0.0913,10.3525 -1.2789,1.2789 0.1827,3.1362 4.0192,3.1362 3.8365,0 1.1418,-4.6282 1.1418,-7.1859 0,-2.5577 -0.8069,-6.6682 3.4864,-6.6987 8.3734,3.1971 5.5422,2.6533 8.0912,5.2762 -0.8249,-2.9037 -1.3011,-6.3284 -1.3011,-9.9957 z m 9.5,-15.8334 c -2.1304,0 -3.9332,4.6748 -4.5355,11.1147 4.3355,0.2721 7.7021,2.2809 7.7021,4.7187 0,2.4377 -3.3666,4.4465 -7.7021,4.7186 0.6023,6.4399 2.4051,11.1147 4.5355,11.1147 2.6233,0 4.75,-7.0888 4.75,-15.8333 0,-8.7445 -2.1267,-15.8334 -4.75,-15.8334 z m -1.5834,0 c -3.4978,0 -6.3333,7.0889 -6.3333,15.8334 0,8.7445 2.8355,15.8333 6.3333,15.8333 l 0.4223,-0.0346 c -2.8884,-0.5432 -5.1723,-7.4089 -5.1723,-15.7987 0,-8.3898 2.2839,-15.2556 5.1722,-15.7987 l -0.4222,-0.0347 z"
   id="path4"
   style="fill:#ffffff;fill-opacity:1;stroke-width:0.2;stroke-linejoin:round"
   inkscape:connector-curvature="0"
   inkscape:export-filename="M:\RobDev\Projects\HomeAutomation\WallTablet\Software\V3\HomeTabletLocalApp\www\img\announce.png"
   inkscape:export-xdpi="153.03668"
   inkscape:export-ydpi="153.03668" />
</svg>