<?xml version="1.0" encoding="UTF-8" standalone="no"?>
<svg
   xmlns:dc="http://purl.org/dc/elements/1.1/"
   xmlns:cc="http://creativecommons.org/ns#"
   xmlns:rdf="http://www.w3.org/1999/02/22-rdf-syntax-ns#"
   xmlns:svg="http://www.w3.org/2000/svg"
   xmlns="http://www.w3.org/2000/svg"
   xmlns:sodipodi="http://sodipodi.sourceforge.net/DTD/sodipodi-0.dtd"
   xmlns:inkscape="http://www.inkscape.org/namespaces/inkscape"
   version="1.1"
   width="76"
   height="76"
   viewBox="0 0 76.00 76.00"
   enable-background="new 0 0 76.00 76.00"
   xml:space="preserve"
   id="svg2"
   inkscape:version="0.48.4 r9939"
   sodipodi:docname="appbar.radioactive.svg"><metadata
   id="metadata10"><rdf:RDF><cc:Work
       rdf:about=""><dc:format>image/svg+xml</dc:format><dc:type
         rdf:resource="http://purl.org/dc/dcmitype/StillImage" /><dc:title></dc:title></cc:Work></rdf:RDF></metadata><defs
   id="defs8" /><sodipodi:namedview
   pagecolor="#ffffff"
   bordercolor="#666666"
   borderopacity="1"
   objecttolerance="10"
   gridtolerance="10"
   guidetolerance="10"
   inkscape:pageopacity="0"
   inkscape:pageshadow="2"
   inkscape:window-width="1016"
   inkscape:window-height="753"
   id="namedview6"
   showgrid="false"
   inkscape:zoom="3.1052632"
   inkscape:cx="-12.237288"
   inkscape:cy="38"
   inkscape:window-x="233"
   inkscape:window-y="211"
   inkscape:window-maximized="0"
   inkscape:current-layer="svg2" />
	<rect
   style="opacity:0.11061946;fill:#000000;fill-opacity:1;stroke:none"
   id="rect2987"
   width="142.66101"
   height="111.74577"
   x="-36.711864"
   y="-11.271187" /><path
   fill="#000000"
   fill-opacity="1"
   stroke-width="0.2"
   stroke-linejoin="round"
   d="M 38,34.8333C 39.7489,34.8333 41.1667,36.2511 41.1667,38C 41.1667,39.7489 39.7489,41.1667 38,41.1667C 36.2511,41.1667 34.8333,39.7489 34.8333,38C 34.8333,36.2511 36.2511,34.8333 38,34.8333 Z M 57,38L 44.3333,38C 44.3333,35.5799 42.9759,33.4769 40.981,32.4107L 46.9429,21.232C 52.9278,24.4306 57,30.7398 57,38 Z M 31.6667,38L 19,38C 19,30.7398 23.0722,24.4306 29.0571,21.232L 35.019,32.4107C 33.024,33.4769 31.6667,35.5799 31.6667,38 Z M 38,57C 34.7668,57 31.7223,56.1924 29.0571,54.768L 35.019,43.5894C 35.9074,44.0642 36.9223,44.3333 38,44.3333C 39.0777,44.3333 40.0926,44.0642 40.981,43.5893L 46.9429,54.768C 44.2777,56.1924 41.2332,57 38,57 Z "
   id="path4"
   style="fill:#ffffff;fill-opacity:1"
   inkscape:export-filename="M:\RobDev\Projects\HomeAutomation\WallTablet\Software\V3\HomeTabletLocalApp\www\img\radio.png"
   inkscape:export-xdpi="176.13509"
   inkscape:export-ydpi="176.13509" />
</svg>