<?xml version="1.0" encoding="UTF-8" standalone="no"?>
<svg
   xmlns:dc="http://purl.org/dc/elements/1.1/"
   xmlns:cc="http://creativecommons.org/ns#"
   xmlns:rdf="http://www.w3.org/1999/02/22-rdf-syntax-ns#"
   xmlns:svg="http://www.w3.org/2000/svg"
   xmlns="http://www.w3.org/2000/svg"
   xmlns:sodipodi="http://sodipodi.sourceforge.net/DTD/sodipodi-0.dtd"
   xmlns:inkscape="http://www.inkscape.org/namespaces/inkscape"
   version="1.1"
   width="76"
   height="76"
   viewBox="0 0 76.00 76.00"
   enable-background="new 0 0 76.00 76.00"
   xml:space="preserve"
   id="svg2"
   inkscape:version="0.48.5 r10040"
   sodipodi:docname="appbar.lightbulb-dark.svg"><metadata
     id="metadata10"><rdf:RDF><cc:Work
         rdf:about=""><dc:format>image/svg+xml</dc:format><dc:type
           rdf:resource="http://purl.org/dc/dcmitype/StillImage" /><dc:title></dc:title></cc:Work></rdf:RDF></metadata><defs
     id="defs8" /><sodipodi:namedview
     pagecolor="#ffffff"
     bordercolor="#666666"
     borderopacity="1"
     objecttolerance="10"
     gridtolerance="10"
     guidetolerance="10"
     inkscape:pageopacity="0"
     inkscape:pageshadow="2"
     inkscape:window-width="1440"
     inkscape:window-height="802"
     id="namedview6"
     showgrid="false"
     inkscape:zoom="8.7830105"
     inkscape:cx="30.399572"
     inkscape:cy="41.221093"
     inkscape:window-x="0"
     inkscape:window-y="0"
     inkscape:window-maximized="1"
     inkscape:current-layer="svg2" /><path
     d="m 40.140783,60.1667 0,-2.7709 8.31278,1.1875 0,1.5834 -8.31278,0 z m -4.15639,-5.1458 0,-2.7709 16.625428,1.5834 0,2.7708 -16.625428,-1.5833 z m 16.625428,-3.1667 -16.625428,-1.5833 0,-2.7709 16.625428,1.5834 0,2.7708 z M 44.297173,17.4167 c 9.181937,0 16.625428,6.0255 16.625428,13.4583 0,4.9815 -8.31278,9.8574 -8.31278,11.6579 l 0,4.9671 -16.625296,-1.5833 0,-3.3838 c 0,-1.3662 -8.312779,-6.6764 -8.312779,-11.6579 0,-7.4328 7.443491,-13.4583 16.625427,-13.4583 z"
     id="path4"
     inkscape:export-filename="/Users/rob/Dropbox/HKJapan/HomeTabletLocalApp/www/img/bulb-off.png"
     inkscape:export-xdpi="147.36842"
     inkscape:export-ydpi="147.36842"
     inkscape:connector-curvature="0"
     style="fill:#000000;fill-opacity:1;stroke-width:0.2;stroke-linejoin:round" /></svg>