<?xml version="1.0" encoding="UTF-8" standalone="no"?>
<svg
   xmlns:dc="http://purl.org/dc/elements/1.1/"
   xmlns:cc="http://creativecommons.org/ns#"
   xmlns:rdf="http://www.w3.org/1999/02/22-rdf-syntax-ns#"
   xmlns:svg="http://www.w3.org/2000/svg"
   xmlns="http://www.w3.org/2000/svg"
   xmlns:sodipodi="http://sodipodi.sourceforge.net/DTD/sodipodi-0.dtd"
   xmlns:inkscape="http://www.inkscape.org/namespaces/inkscape"
   version="1.1"
   width="76"
   height="76"
   viewBox="0 0 76.00 76.00"
   enable-background="new 0 0 76.00 76.00"
   xml:space="preserve"
   id="svg2"
   inkscape:version="0.48.4 r9939"
   sodipodi:docname="appbar.door.lock.open.svg"><metadata
   id="metadata10"><rdf:RDF><cc:Work
       rdf:about=""><dc:format>image/svg+xml</dc:format><dc:type
         rdf:resource="http://purl.org/dc/dcmitype/StillImage" /><dc:title></dc:title></cc:Work></rdf:RDF></metadata><defs
   id="defs8" /><sodipodi:namedview
   pagecolor="#ffffff"
   bordercolor="#666666"
   borderopacity="1"
   objecttolerance="10"
   gridtolerance="10"
   guidetolerance="10"
   inkscape:pageopacity="0"
   inkscape:pageshadow="2"
   inkscape:window-width="1176"
   inkscape:window-height="773"
   id="namedview6"
   showgrid="false"
   inkscape:zoom="3.1052632"
   inkscape:cx="-12.237288"
   inkscape:cy="38"
   inkscape:window-x="590"
   inkscape:window-y="481"
   inkscape:window-maximized="0"
   inkscape:current-layer="svg2" />
	<g
   id="g2991"
   transform="translate(-20.610537,-14.498332)"><path
     id="path2993"
     d="M 4.3582678,0 108.35433,0 c 2.40945,0 4.35827,2.2322835 4.35827,5.0314961 l 0,90.4606309 c 0,2.763779 -1.94882,4.996063 -4.35827,4.996063 l -103.9960622,0 C 1.9488189,100.48819 0,98.255906 0,95.492127 L 0,5.0314961 C 0,2.2322835 1.9488189,0 4.3582678,0 z"
     style="fill:#959595;fill-opacity:1;fill-rule:nonzero;stroke:none"
     inkscape:connector-curvature="0" /></g><g
   id="g3001"
   style="fill:#ffffff;fill-opacity:1"><path
     id="path4"
     d="M 22,19L 54,19L 54,57L 51,57L 51,22L 47,22L 47,50L 25,57L 22,57L 22,19 Z M 45,49.75L 45,22L 25,22L 25,55.7L 45,49.75 Z M 34.75,28.2088C 36.821,27.5 38.5,29.1045 38.5,31.7925C 38.5,33.8068 37.5571,35.858 36.213,37.0578L 37,44.9601L 32.5,46.5L 33.287,38.0591C 31.9428,37.7793 31,36.3734 31,34.3591C 31,31.6711 32.6789,28.9175 34.75,28.2088 Z M 41.5,31.7392C 42.3284,31.4557 43,32.0975 43,33.1727C 43,34.2479 42.3284,35.3494 41.5,35.6329C 40.6716,35.9163 40,35.2746 40,34.1994C 40,33.1242 40.6716,32.0227 41.5,31.7392 Z "
     stroke-linejoin="round"
     stroke-width="0.2"
     fill-opacity="1"
     fill="#000000"
     style="fill:#ffffff;fill-opacity:1" /></g>
</svg>