<?xml version="1.0" encoding="UTF-8" standalone="no"?>
<svg
   xmlns:dc="http://purl.org/dc/elements/1.1/"
   xmlns:cc="http://creativecommons.org/ns#"
   xmlns:rdf="http://www.w3.org/1999/02/22-rdf-syntax-ns#"
   xmlns:svg="http://www.w3.org/2000/svg"
   xmlns="http://www.w3.org/2000/svg"
   xmlns:sodipodi="http://sodipodi.sourceforge.net/DTD/sodipodi-0.dtd"
   xmlns:inkscape="http://www.inkscape.org/namespaces/inkscape"
   version="1.1"
   width="76"
   height="76"
   viewBox="0 0 76.00 76.00"
   enable-background="new 0 0 76.00 76.00"
   xml:space="preserve"
   id="svg2"
   inkscape:version="0.48.4 r9939"
   sodipodi:docname="appbar.door.lock.closed.svg"><metadata
   id="metadata10"><rdf:RDF><cc:Work
       rdf:about=""><dc:format>image/svg+xml</dc:format><dc:type
         rdf:resource="http://purl.org/dc/dcmitype/StillImage" /><dc:title></dc:title></cc:Work></rdf:RDF></metadata><defs
   id="defs8" /><sodipodi:namedview
   pagecolor="#ffffff"
   bordercolor="#666666"
   borderopacity="1"
   objecttolerance="10"
   gridtolerance="10"
   guidetolerance="10"
   inkscape:pageopacity="0"
   inkscape:pageshadow="2"
   inkscape:window-width="1326"
   inkscape:window-height="775"
   id="namedview6"
   showgrid="false"
   inkscape:zoom="3.1052632"
   inkscape:cx="-12.237288"
   inkscape:cy="38"
   inkscape:window-x="628"
   inkscape:window-y="296"
   inkscape:window-maximized="0"
   inkscape:current-layer="svg2" />
	<rect
   style="fill:#959595;fill-opacity:1;stroke:none"
   id="rect2993"
   width="112.71186"
   height="100.47458"
   x="-17.711863"
   y="-16.745764"
   rx="4.3694339"
   ry="5.0135851" /><g
   id="g2994"
   style="stroke:none;fill:#ffffff;fill-opacity:1"><path
     id="path4"
     d="M 22,19L 54,19L 54,57L 51,57L 51,22L 25,22L 25,57L 22,57L 22,19 Z M 38,32.0001C 40.7614,32.0001 43,34.2386 43,37C 43,39.0694 41.7428,40.8451 39.9506,41.6052L 41,50L 35,50L 36.0493,41.6052C 34.2571,40.8451 33,39.0694 33,37C 33,34.2386 35.2385,32.0001 38,32.0001 Z M 47,38C 48.1045,38 49,38.8955 49,40C 49,41.1046 48.1045,42 47,42C 45.8954,42 45,41.1046 45,40C 45,38.8955 45.8954,38 47,38 Z "
     stroke-linejoin="round"
     stroke-width="0.2"
     fill-opacity="1"
     fill="#000000"
     style="stroke:none;fill:#ffffff;fill-opacity:1" /></g>
</svg>