<?xml version="1.0" encoding="UTF-8" standalone="no"?>
<svg
   xmlns:dc="http://purl.org/dc/elements/1.1/"
   xmlns:cc="http://creativecommons.org/ns#"
   xmlns:rdf="http://www.w3.org/1999/02/22-rdf-syntax-ns#"
   xmlns:svg="http://www.w3.org/2000/svg"
   xmlns="http://www.w3.org/2000/svg"
   xmlns:sodipodi="http://sodipodi.sourceforge.net/DTD/sodipodi-0.dtd"
   xmlns:inkscape="http://www.inkscape.org/namespaces/inkscape"
   version="1.1"
   width="76"
   height="76"
   viewBox="0 0 76.00 76.00"
   enable-background="new 0 0 76.00 76.00"
   xml:space="preserve"
   id="svg2"
   inkscape:version="0.48.4 r9939"
   sodipodi:docname="music-vol-down.svg"><metadata
   id="metadata10"><rdf:RDF><cc:Work
       rdf:about=""><dc:format>image/svg+xml</dc:format><dc:type
         rdf:resource="http://purl.org/dc/dcmitype/StillImage" /><dc:title></dc:title></cc:Work></rdf:RDF></metadata><defs
   id="defs8" /><sodipodi:namedview
   pagecolor="#ffffff"
   bordercolor="#666666"
   borderopacity="1"
   objecttolerance="10"
   gridtolerance="10"
   guidetolerance="10"
   inkscape:pageopacity="0"
   inkscape:pageshadow="2"
   inkscape:window-width="1145"
   inkscape:window-height="912"
   id="namedview6"
   showgrid="false"
   inkscape:zoom="4.3915053"
   inkscape:cx="-31.340543"
   inkscape:cy="19.168147"
   inkscape:window-x="203"
   inkscape:window-y="468"
   inkscape:window-maximized="0"
   inkscape:current-layer="svg2" />
	<rect
   style="fill:#000000;fill-opacity:1;stroke:none"
   id="rect4306"
   width="61.508476"
   height="58.771187"
   x="8.6949148"
   y="8.8559322" /><path
   style="fill:#ffffff;fill-opacity:1"
   d="M 49.09375,42.893529 53.857982,47.938781 53.84375,19 28.5,23.75 28.5,47.65625 26.90625,47.5 c -3.4978,0 -6.3125,2.1266 -6.3125,4.75 0,2.6234 2.8147,4.75 6.3125,4.75 3.4978,0 6.34375,-2.1266 6.34375,-4.75 l 0,-24.625 15.84375,-3 0,18.268529 4.765244,5.04807 -4.952744,-0.03535 -5.5,0 0,3.1875 c -1.357126,-0.871185 -2.25,-2.148904 -2.25,-3.59375 0,-2.6234 2.84595,-4.75 6.34375,-4.75 0.481028,0 1.155189,0.105708 1.605498,0.181928 z"
   id="path4"
   inkscape:connector-curvature="0"
   sodipodi:nodetypes="ccccccssscccccccsscc"
   inkscape:export-filename="\\MACALLAN\Main\RobDev\Projects\HomeAutomation\WallTablet\Software\V3\HomeTabletLocalApp\www\img\music-vol-down.png"
   inkscape:export-xdpi="165.78947"
   inkscape:export-ydpi="165.78947" />
<path
   inkscape:connector-curvature="0"
   d="m 53.914152,49.364407 c 1.666667,0 5,0 5,0 l 0,4 c 0,0 -3.333333,0 -5,0 -1.333333,0 -2.666667,0 -4,0 -1.666667,0 -5,0 -5,0 l 0,-4 c 0,0 3.333333,0 5,0 1.333333,0 2.666667,0 4,0 z"
   id="path4-7"
   style="fill:#ffffff;fill-opacity:1"
   sodipodi:nodetypes="accaaccaa"
   inkscape:export-filename="\\MACALLAN\Main\RobDev\Projects\HomeAutomation\WallTablet\Software\V3\HomeTabletLocalApp\www\img\music-vol-down.png"
   inkscape:export-xdpi="165.78947"
   inkscape:export-ydpi="165.78947" /></svg>