<?xml version="1.0" encoding="UTF-8" standalone="no"?>
<svg
   xmlns:dc="http://purl.org/dc/elements/1.1/"
   xmlns:cc="http://creativecommons.org/ns#"
   xmlns:rdf="http://www.w3.org/1999/02/22-rdf-syntax-ns#"
   xmlns:svg="http://www.w3.org/2000/svg"
   xmlns="http://www.w3.org/2000/svg"
   xmlns:sodipodi="http://sodipodi.sourceforge.net/DTD/sodipodi-0.dtd"
   xmlns:inkscape="http://www.inkscape.org/namespaces/inkscape"
   version="1.1"
   width="76"
   height="76"
   viewBox="0 0 76.00 76.00"
   enable-background="new 0 0 76.00 76.00"
   xml:space="preserve"
   id="svg2"
   inkscape:version="0.48.4 r9939"
   sodipodi:docname="music-vol-up.svg"><metadata
   id="metadata10"><rdf:RDF><cc:Work
       rdf:about=""><dc:format>image/svg+xml</dc:format><dc:type
         rdf:resource="http://purl.org/dc/dcmitype/StillImage" /><dc:title></dc:title></cc:Work></rdf:RDF></metadata><defs
   id="defs8" /><sodipodi:namedview
   pagecolor="#ffffff"
   bordercolor="#666666"
   borderopacity="1"
   objecttolerance="10"
   gridtolerance="10"
   guidetolerance="10"
   inkscape:pageopacity="0"
   inkscape:pageshadow="2"
   inkscape:window-width="1145"
   inkscape:window-height="912"
   id="namedview6"
   showgrid="false"
   inkscape:zoom="4.3915053"
   inkscape:cx="36.238361"
   inkscape:cy="7.1162886"
   inkscape:window-x="203"
   inkscape:window-y="468"
   inkscape:window-maximized="0"
   inkscape:current-layer="svg2" />
	<rect
   style="fill:#000000;fill-opacity:1;stroke:none"
   id="rect4306"
   width="61.508476"
   height="58.771187"
   x="8.6949148"
   y="8.8559322" /><path
   style="fill:#ffffff;fill-opacity:1"
   d="M 53.84375 19 L 28.5 23.75 L 28.5 47.65625 L 26.90625 47.5 C 23.40845 47.5 20.59375 49.6266 20.59375 52.25 C 20.59375 54.8734 23.40845 57 26.90625 57 C 30.40405 57 33.25 54.8734 33.25 52.25 L 33.25 27.625 L 49.09375 24.625 L 49.09375 42.125 L 53.84375 42.125 L 53.84375 19 z M 47.5 42.75 C 44.0022 42.75 41.15625 44.8766 41.15625 47.5 C 41.15625 48.944846 42.049124 50.222565 43.40625 51.09375 L 43.40625 47.90625 L 48.90625 47.90625 L 48.90625 42.875 C 48.455941 42.798777 47.981028 42.75 47.5 42.75 z M 53.84375 47.125 L 53.34375 47.90625 L 53.8125 47.90625 C 53.826865 47.775692 53.84375 47.633339 53.84375 47.5 L 53.84375 47.125 z "
   id="path4"
   inkscape:export-filename="\\MACALLAN\Main\RobDev\Projects\HomeAutomation\WallTablet\Software\V3\HomeTabletLocalApp\www\img\music-vol-up.png"
   inkscape:export-xdpi="160.04306"
   inkscape:export-ydpi="160.04306" />
<path
   inkscape:connector-curvature="0"
   d="m 49.914152,44.364407 4,0 0,5 5,0 0,4 -5,0 0,5 -4,0 0,-5 -5,0 0,-4 5,0 0,-5 z"
   id="path4-7"
   style="fill:#ffffff;fill-opacity:1"
   inkscape:export-filename="\\MACALLAN\Main\RobDev\Projects\HomeAutomation\WallTablet\Software\V3\HomeTabletLocalApp\www\img\music-vol-up.png"
   inkscape:export-xdpi="160.04306"
   inkscape:export-ydpi="160.04306" /></svg>