<?xml version="1.0" encoding="UTF-8" standalone="no"?>
<svg
   xmlns:dc="http://purl.org/dc/elements/1.1/"
   xmlns:cc="http://creativecommons.org/ns#"
   xmlns:rdf="http://www.w3.org/1999/02/22-rdf-syntax-ns#"
   xmlns:svg="http://www.w3.org/2000/svg"
   xmlns="http://www.w3.org/2000/svg"
   xmlns:sodipodi="http://sodipodi.sourceforge.net/DTD/sodipodi-0.dtd"
   xmlns:inkscape="http://www.inkscape.org/namespaces/inkscape"
   version="1.1"
   width="76"
   height="76"
   viewBox="0 0 76.00 76.00"
   enable-background="new 0 0 76.00 76.00"
   xml:space="preserve"
   id="svg2"
   inkscape:version="0.48.4 r9939"
   sodipodi:docname="music-stop.svg"><metadata
   id="metadata10"><rdf:RDF><cc:Work
       rdf:about=""><dc:format>image/svg+xml</dc:format><dc:type
         rdf:resource="http://purl.org/dc/dcmitype/StillImage" /><dc:title></dc:title></cc:Work></rdf:RDF></metadata><defs
   id="defs8" /><sodipodi:namedview
   pagecolor="#ffffff"
   bordercolor="#666666"
   borderopacity="1"
   objecttolerance="10"
   gridtolerance="10"
   guidetolerance="10"
   inkscape:pageopacity="0"
   inkscape:pageshadow="2"
   inkscape:window-width="1145"
   inkscape:window-height="912"
   id="namedview6"
   showgrid="false"
   inkscape:zoom="6.2105263"
   inkscape:cx="19.351695"
   inkscape:cy="23.901205"
   inkscape:window-x="203"
   inkscape:window-y="468"
   inkscape:window-maximized="0"
   inkscape:current-layer="svg2" />
	<rect
   style="fill:#727272;fill-opacity:1;stroke:none;opacity:1"
   id="rect3772"
   width="61.830509"
   height="59.254238"
   x="8.8559322"
   y="8.8559322" /><path
   d="M 53.84375 19 L 28.5 23.75 L 28.5 47.65625 L 26.90625 47.5 C 23.40845 47.5 20.59375 49.6266 20.59375 52.25 C 20.59375 54.8734 23.40845 57 26.90625 57 C 30.40405 57 33.25 54.8734 33.25 52.25 L 33.25 27.625 L 49.09375 24.625 L 49.09375 42.90625 C 48.58775 42.80855 48.0467 42.75 47.5 42.75 C 44.0022 42.75 41.15625 44.8766 41.15625 47.5 C 41.15625 49.656994 43.09292 51.451879 45.71875 52.03125 L 45.71875 45.75 L 53.84375 45.75 L 53.84375 19 z "
   id="path4"
   style="fill:#ffffff;fill-opacity:1"
   inkscape:export-filename="\\MACALLAN\Main\RobDev\Projects\HomeAutomation\WallTablet\Software\V3\HomeTabletLocalApp\www\img\music-stop.png"
   inkscape:export-xdpi="166.91"
   inkscape:export-ydpi="166.91" />
<rect
   style="fill:#ffffff;fill-opacity:1;stroke:none"
   id="rect2999"
   width="11"
   height="11"
   x="47.338985"
   y="47.287811"
   rx="0"
   ry="0"
   inkscape:export-filename="\\MACALLAN\Main\RobDev\Projects\HomeAutomation\WallTablet\Software\V3\HomeTabletLocalApp\www\img\music-stop.png"
   inkscape:export-xdpi="166.91"
   inkscape:export-ydpi="166.91" /></svg>