<?xml version="1.0" encoding="UTF-8" standalone="no"?>
<svg
   xmlns:dc="http://purl.org/dc/elements/1.1/"
   xmlns:cc="http://creativecommons.org/ns#"
   xmlns:rdf="http://www.w3.org/1999/02/22-rdf-syntax-ns#"
   xmlns:svg="http://www.w3.org/2000/svg"
   xmlns="http://www.w3.org/2000/svg"
   xmlns:sodipodi="http://sodipodi.sourceforge.net/DTD/sodipodi-0.dtd"
   xmlns:inkscape="http://www.inkscape.org/namespaces/inkscape"
   version="1.1"
   width="76"
   height="76"
   viewBox="0 0 76.00 76.00"
   enable-background="new 0 0 76.00 76.00"
   xml:space="preserve"
   id="svg2"
   inkscape:version="0.48.4 r9939"
   sodipodi:docname="music-play.svg"><metadata
   id="metadata10"><rdf:RDF><cc:Work
       rdf:about=""><dc:format>image/svg+xml</dc:format><dc:type
         rdf:resource="http://purl.org/dc/dcmitype/StillImage" /><dc:title></dc:title></cc:Work></rdf:RDF></metadata><defs
   id="defs8" /><sodipodi:namedview
   pagecolor="#ffffff"
   bordercolor="#666666"
   borderopacity="1"
   objecttolerance="10"
   gridtolerance="10"
   guidetolerance="10"
   inkscape:pageopacity="0"
   inkscape:pageshadow="2"
   inkscape:window-width="1145"
   inkscape:window-height="912"
   id="namedview6"
   showgrid="false"
   inkscape:zoom="6.2105263"
   inkscape:cx="34.578061"
   inkscape:cy="23.901205"
   inkscape:window-x="526"
   inkscape:window-y="293"
   inkscape:window-maximized="0"
   inkscape:current-layer="svg2" />
	<rect
   style="fill:#727272;fill-opacity:1;stroke:none"
   id="rect3772"
   width="61.830509"
   height="59.254238"
   x="9.3389826"
   y="7.0847454" /><path
   style="fill:#ffffff;fill-opacity:1;stroke-width:0.20000000000000001;stroke-linejoin:round"
   d="M 53.84375 19 L 28.5 23.75 L 28.5 47.65625 L 26.90625 47.5 C 23.40845 47.5 20.59375 49.6266 20.59375 52.25 C 20.59375 54.8734 23.40845 57 26.90625 57 C 30.40405 57 33.25 54.8734 33.25 52.25 L 33.25 27.625 L 49.09375 24.625 L 49.09375 42.90625 C 48.665481 42.823559 48.20836 42.763396 47.75 42.75 L 53.84375 48.6875 C 53.848478 48.613785 53.84375 48.544927 53.84375 48.46875 L 53.84375 19 z M 45.34375 43.0625 C 42.912005 43.725801 41.15625 45.446867 41.15625 47.5 C 41.15625 49.553133 42.912005 51.274199 45.34375 51.9375 L 45.34375 43.0625 z "
   id="path4"
   inkscape:export-filename="\\MACALLAN\Main\RobDev\Projects\HomeAutomation\WallTablet\Software\V3\HomeTabletLocalApp\www\img\music-play.png"
   inkscape:export-xdpi="148.15909"
   inkscape:export-ydpi="148.15909" />
<path
   inkscape:connector-curvature="0"
   d="m 46.775424,44.105259 9.5,8.7083 -9.5,8.7083 0,-17.4166 z"
   id="path2991"
   style="fill:#ffffff;fill-opacity:1"
   inkscape:export-filename="\\MACALLAN\Main\RobDev\Projects\HomeAutomation\WallTablet\Software\V3\HomeTabletLocalApp\www\img\music-play.png"
   inkscape:export-xdpi="148.15909"
   inkscape:export-ydpi="148.15909" /></svg>