<?xml version="1.0" encoding="UTF-8" standalone="no"?>
<svg
   xmlns:dc="http://purl.org/dc/elements/1.1/"
   xmlns:cc="http://creativecommons.org/ns#"
   xmlns:rdf="http://www.w3.org/1999/02/22-rdf-syntax-ns#"
   xmlns:svg="http://www.w3.org/2000/svg"
   xmlns="http://www.w3.org/2000/svg"
   xmlns:sodipodi="http://sodipodi.sourceforge.net/DTD/sodipodi-0.dtd"
   xmlns:inkscape="http://www.inkscape.org/namespaces/inkscape"
   version="1.1"
   width="76"
   height="76"
   viewBox="0 0 76.00 76.00"
   enable-background="new 0 0 76.00 76.00"
   xml:space="preserve"
   id="svg2"
   inkscape:version="0.48.4 r9939"
   sodipodi:docname="shades-up.svg"><metadata
   id="metadata10"><rdf:RDF><cc:Work
       rdf:about=""><dc:format>image/svg+xml</dc:format><dc:type
         rdf:resource="http://purl.org/dc/dcmitype/StillImage" /><dc:title></dc:title></cc:Work></rdf:RDF></metadata><defs
   id="defs8" /><sodipodi:namedview
   pagecolor="#ffffff"
   bordercolor="#666666"
   borderopacity="1"
   objecttolerance="10"
   gridtolerance="10"
   guidetolerance="10"
   inkscape:pageopacity="0"
   inkscape:pageshadow="2"
   inkscape:window-width="1378"
   inkscape:window-height="742"
   id="namedview6"
   showgrid="false"
   inkscape:zoom="3.1052632"
   inkscape:cx="-20.434047"
   inkscape:cy="10.671623"
   inkscape:window-x="414"
   inkscape:window-y="490"
   inkscape:window-maximized="0"
   inkscape:current-layer="svg2" />
	<rect
   style="opacity:1;fill:#959595;fill-opacity:1;stroke:none;stroke-opacity:1"
   id="rect2993"
   width="112.71186"
   height="100.47458"
   x="-19.322035"
   y="-12.237288"
   rx="4.3694339"
   ry="5.0135851" />
<path
   d="m 40,37 9,0 0,-14 -22,0 0,14 9,0 0,-0.872881 4,0 z M 53,19.0001 53,57 23,57 23,19.0001 z M 27,40 l 0,13 22,0 0,-13 z"
   id="path4"
   inkscape:connector-curvature="0"
   style="fill:#ffffff;fill-opacity:1;stroke:#ffffff;stroke-width:0.2;stroke-linejoin:round;stroke-opacity:1"
   sodipodi:nodetypes="ccccccccccccccccccc" /><path
   id="path2989"
   style="fill:#ffffff;fill-opacity:1;stroke:#ffffff;stroke-width:1px;stroke-linecap:butt;stroke-linejoin:miter;stroke-opacity:1"
   d="m 41.213242,23.736953 c 0,0 -4.462565,-1.004722 -8.84684,-0.04784 -4.384274,0.956878 -8.455385,-0.07281 -8.455385,-0.07281 l 0.08051,-3.750236 27.855932,0.14716 0.241525,3.713445 c -5.160527,1.15854 -10.875741,0.01032 -10.875741,0.01032 z"
   inkscape:connector-curvature="0"
   sodipodi:nodetypes="cscccccc" /><path
   id="path3780"
   style="fill:#ffffff;fill-opacity:1;stroke:#ffffff;stroke-width:1px;stroke-linecap:butt;stroke-linejoin:miter;stroke-opacity:1"
   d="m 52.290254,27.00272 c -5.402052,1.308731 -11.117266,0.05235 -11.117266,0.05235 0,0 -4.462565,-1.099334 -8.84684,-0.05235 -4.384274,1.046984 -8.455385,0 -8.455385,0 L 23.73678,25.294878 c 1.142468,0.08779 4.094441,1.039296 8.475512,0 4.385836,-1.040426 8.84684,0.05235 8.84684,0.05235 0,0 5.715214,1.256381 11.117266,-0.05235 z"
   inkscape:connector-curvature="0"
   sodipodi:nodetypes="ccsccsccc" /><path
   sodipodi:nodetypes="ccsccsccc"
   inkscape:connector-curvature="0"
   d="m 52.290254,30.449523 c -5.402052,1.308731 -11.117266,0.05235 -11.117266,0.05235 0,0 -4.462565,-1.099334 -8.84684,-0.05235 -4.384274,1.046984 -8.455385,0 -8.455385,0 L 23.73678,28.741681 c 1.142468,0.08779 4.094441,1.039296 8.475512,0 4.385836,-1.040426 8.84684,0.05235 8.84684,0.05235 0,0 5.715214,1.256381 11.117266,-0.05235 z"
   style="fill:#ffffff;fill-opacity:1;stroke:#ffffff;stroke-width:1px;stroke-linecap:butt;stroke-linejoin:miter;stroke-opacity:1"
   id="path3787" /><path
   id="path3789"
   style="fill:#ffffff;fill-opacity:1;stroke:#ffffff;stroke-width:1px;stroke-linecap:butt;stroke-linejoin:miter;stroke-opacity:1"
   d="m 52.290254,33.766387 c -5.402052,1.308731 -11.117266,0.05235 -11.117266,0.05235 0,0 -4.462565,-1.099334 -8.84684,-0.05235 -4.384274,1.046984 -8.455385,0 -8.455385,0 L 23.73678,32.058545 c 1.142468,0.08779 4.094441,1.039296 8.475512,0 4.385836,-1.040426 8.84684,0.05235 8.84684,0.05235 0,0 5.715214,1.256381 11.117266,-0.05235 z"
   inkscape:connector-curvature="0"
   sodipodi:nodetypes="ccsccsccc" /><path
   style="fill:#ffffff;fill-opacity:1;stroke:#ffffff;stroke-width:0.2;stroke-linejoin:round;stroke-opacity:1"
   inkscape:connector-curvature="0"
   d="m 39.231812,41.516936 -2.11138,0 0,6.532082 -2.639225,-2.639225 0,2.771187 3.694915,3.694915 3.694916,-3.694915 0,-2.771187 -2.639226,2.639225 0,-6.532082 z"
   id="path4-1" /></svg>