<?xml version="1.0" encoding="UTF-8" standalone="no"?>
<!-- Created with Inkscape (http://www.inkscape.org/) -->

<svg
   xmlns:dc="http://purl.org/dc/elements/1.1/"
   xmlns:cc="http://creativecommons.org/ns#"
   xmlns:rdf="http://www.w3.org/1999/02/22-rdf-syntax-ns#"
   xmlns:svg="http://www.w3.org/2000/svg"
   xmlns="http://www.w3.org/2000/svg"
   xmlns:sodipodi="http://sodipodi.sourceforge.net/DTD/sodipodi-0.dtd"
   xmlns:inkscape="http://www.inkscape.org/namespaces/inkscape"
   width="1024"
   height="600"
   id="svg2995"
   version="1.1"
   inkscape:version="0.48.4 r9939"
   sodipodi:docname="V4UI1.svg">
  <defs
     id="defs2997" />
  <sodipodi:namedview
     id="base"
     pagecolor="#ffffff"
     bordercolor="#666666"
     borderopacity="1.0"
     inkscape:pageopacity="0.0"
     inkscape:pageshadow="2"
     inkscape:zoom="1.4"
     inkscape:cx="471.0596"
     inkscape:cy="324.23522"
     inkscape:document-units="px"
     inkscape:current-layer="layer1"
     showgrid="false"
     width="1024px"
     inkscape:snap-global="true"
     gridtolerance="6"
     objecttolerance="10"
     inkscape:window-width="2327"
     inkscape:window-height="1131"
     inkscape:window-x="83"
     inkscape:window-y="187"
     inkscape:window-maximized="0">
    <inkscape:grid
       type="xygrid"
       id="grid3003"
       empspacing="5"
       visible="true"
       enabled="true"
       snapvisiblegridlinesonly="true" />
  </sodipodi:namedview>
  <metadata
     id="metadata3000">
    <rdf:RDF>
      <cc:Work
         rdf:about="">
        <dc:format>image/svg+xml</dc:format>
        <dc:type
           rdf:resource="http://purl.org/dc/dcmitype/StillImage" />
        <dc:title></dc:title>
      </cc:Work>
    </rdf:RDF>
  </metadata>
  <g
     inkscape:label="Layer 1"
     inkscape:groupmode="layer"
     id="layer1"
     transform="translate(0,-452.3622)">
    <rect
       style="fill:#959595;fill-opacity:1;stroke:none"
       id="rect2993-5"
       width="299.14044"
       height="624.04602"
       x="-300.64166"
       y="432.83917"
       rx="0"
       ry="0" />
    <rect
       style="fill:#214eff;fill-opacity:1;stroke:#005cff;stroke-width:2.14802194;stroke-linecap:round;stroke-miterlimit:4;stroke-opacity:1;stroke-dasharray:none"
       id="rect3009"
       width="397.85199"
       height="97.851982"
       x="21.074011"
       y="473.43619"
       ry="0" />
    <text
       xml:space="preserve"
       style="font-size:40px;font-style:normal;font-weight:normal;line-height:125%;letter-spacing:0px;word-spacing:0px;fill:#ffffff;fill-opacity:1;stroke:none;font-family:Sans"
       x="105.19252"
       y="533.11694"
       id="text3779"
       sodipodi:linespacing="125%"><tspan
         sodipodi:role="line"
         x="105.19252"
         y="533.11694"
         style="font-size:28px;font-style:normal;font-variant:normal;font-weight:normal;font-stretch:normal;font-family:Arial;-inkscape-font-specification:Arial"
         id="tspan3792">GRACE BATH ON</tspan></text>
    <path
       style="fill:#ffffff;fill-opacity:1;stroke-width:0.2;stroke-linejoin:round"
       inkscape:connector-curvature="0"
       d="m 87.857143,495.0892 -20.001403,23.07919 17.776577,0 -35.55554,36.92081 13.334783,-29.99818 -15.554417,0 17.776156,-30.00182 22.223844,0 z"
       id="path4" />
    <rect
       ry="0"
       y="592.72192"
       x="21.074011"
       height="97.851982"
       width="397.85199"
       id="rect3796"
       style="fill:#214eff;fill-opacity:1;stroke:#005cff;stroke-width:2.14802194;stroke-linecap:round;stroke-miterlimit:4;stroke-opacity:1;stroke-dasharray:none" />
    <text
       sodipodi:linespacing="125%"
       id="text3798"
       y="652.40265"
       x="105.19252"
       style="font-size:40px;font-style:normal;font-weight:normal;line-height:125%;letter-spacing:0px;word-spacing:0px;fill:#ffffff;fill-opacity:1;stroke:none;font-family:Sans"
       xml:space="preserve"><tspan
         id="tspan3800"
         style="font-size:28px;font-style:normal;font-variant:normal;font-weight:normal;font-stretch:normal;font-family:Arial;-inkscape-font-specification:Arial"
         y="652.40265"
         x="105.19252"
         sodipodi:role="line">GRACE BATH OFF</tspan></text>
    <path
       style="fill:#ffffff;fill-opacity:1;stroke-width:0.2;stroke-linejoin:round"
       inkscape:connector-curvature="0"
       d="m 90.219274,612.94685 -20.770671,23.07919 18.460261,0 -36.92329,36.92081 13.847891,-29.99818 -16.15291,0 18.460115,-30.00182 23.078604,0 z m -49.615174,2.31143 8.076455,0 8.653293,8.65329 -3.461317,4.61514 L 40.6041,615.25828 z m 35.767137,36.92067 4.614992,-4.61514 16.152915,16.15276 -4.61514,4.615 -16.152767,-16.15262 z"
       id="path4-4" />
    <path
       style="fill:#000000;fill-opacity:1;stroke-width:0.2;stroke-linejoin:round"
       inkscape:connector-curvature="0"
       d="m -137.71429,772.75317 c 2.616,0 4.73684,2.12085 4.73684,4.73685 l 0,3.15789 -31.57895,0 0,-3.15789 c 0,-2.616 2.12069,-4.73685 4.73685,-4.73685 l 7.89473,0 0,-31.57894 -15.78947,0 9.47368,-20.52632 18.94737,0 9.47369,20.52632 -15.78948,0 0,31.57894 7.89474,0 z"
       id="path4-1" />
    <path
       style="fill:#000000;fill-opacity:1;stroke-width:0.2;stroke-linejoin:round"
       inkscape:connector-curvature="0"
       d="m -145.13876,867.89562 c -13.11518,0 -23.74715,-10.63197 -23.74715,-23.74726 0,-11.11447 7.63565,-20.44563 17.94741,-23.03385 -4.24452,4.29003 -6.86544,10.18967 -6.86544,16.70131 0,13.11519 10.63197,23.74716 23.74726,23.74716 2.00071,0 3.94362,-0.24741 5.79973,-0.71331 -4.30432,4.35053 -10.27826,7.04595 -16.88181,7.04595 z m 8.77686,-11.95188 -6.65004,0 0,-0.88901 3.73602,-4.87433 -3.29272,0 0,-1.62561 6.20674,0 0,1.06911 -3.53982,4.69433 3.53982,0 0,1.62551 z m 6.29584,-9.49886 -8.55005,0 0,-1.14301 4.80343,-6.26704 -4.23343,0 0,-2.09002 7.98005,0 0,1.37451 -4.55113,6.03554 4.55113,0 0,2.09002 z m -5.97354,-11.08208 -10.45007,0 0,-1.3969 5.87094,-7.65976 -5.17423,0 0,-2.55451 9.75336,0 0,1.68001 -5.56243,7.37675 5.56243,0 0,2.55441 z"
       id="path4-6" />
    <path
       style="fill:#000000;fill-opacity:1;stroke-width:0.2;stroke-linejoin:round"
       inkscape:connector-curvature="0"
       d="m -140.34527,918.70639 c 4.3722,0 7.9167,3.5444 7.9167,7.9166 0,4.3723 -3.5443,7.9166 -7.9489,7.9166 l -26.0928,2e-4 c -2.1861,-1e-4 -3.9583,-1.7723 -3.9583,-3.9584 0,-1.9384 1.3931,-3.5513 3.2328,-3.892 l -0.0661,-0.8581 c 0,-2.9756 2.3456,-5.4037 5.2886,-5.536 1.3026,-3.6927 4.823,-6.339 8.9614,-6.339 3.9292,0 7.3012,2.3854 8.747,5.7869 1.1556,-0.6598 2.4936,-1.0368 3.9196,-1.0368 z m 12.8432,-0.1447 -4.1561,0.9542 c -1.0466,-1.2394 -2.4171,-2.1964 -3.9811,-2.7403 l 0.003,-2.4171 8.1341,4.2032 z m -47.853,-6.044 8.9258,-2.0492 c -0.6702,1.9764 -0.9551,4.0985 -0.7917,6.2525 l -8.1341,-4.2033 z m 9.1448,-16.0335 7.7592,4.8617 c -1.9404,0.9572 -3.621,2.2828 -4.9792,3.8638 l -2.78,-8.7255 z m 17.8037,-4.871 2.0492,8.9258 c -1.9764,-0.6701 -4.0984,-0.955 -6.2525,-0.7916 l 4.2033,-8.1342 z m 16.0335,9.1448 -4.8617,7.7592 c -0.9572,-1.9403 -2.2828,-3.6209 -3.8637,-4.9791 l 8.7254,-2.7801 z m -19.0555,2.1151 c 6.9956,0 12.6666,5.671 12.6666,12.6666 l -0.0208,0.7325 c -1.5921,0.0242 -3.0856,0.4558 -4.3805,1.1953 -1.6682,-3.9249 -5.559,-6.6773 -10.0926,-6.6773 -4.7751,0 -8.837,3.0534 -10.3399,7.3143 l -0.2366,0.015 c -0.1723,-0.8329 -0.2629,-1.6958 -0.2629,-2.5798 0,-6.9956 5.6711,-12.6666 12.6667,-12.6666 z"
       id="path4-2" />
    <path
       style="fill:#000000;fill-opacity:1;stroke-width:0.2;stroke-linejoin:round"
       inkscape:connector-curvature="0"
       d="m -63.854461,896.21674 -0.063,0.0629 c 0,0 2.1755,0.5119 -7.2069,10.899 l 1.195,6.3088 0.414,-0.414 c 0.6183,-0.6183 1.6208,-0.6183 2.2391,0 0.6184,0.6183 0.6184,1.6209 0,2.2392 l -2.001,2.001 0.4481,2.9107 0.1534,-0.1535 c 0.6184,-0.6183 1.6209,-0.6183 2.2392,0 0.6183,0.6184 0.6183,1.6209 0,2.2392 l -1.8768,1.8768 c 0.3665,3.267 0.5078,6.0879 0.1974,7.6397 0,0 -1.9592,1.9592 -3.0788,0.8397 0,0 -3.7931,-12.8966 -6.3836,-18.7068 -9.9968,10.1635 -10.6901,9.4702 -10.6901,9.4702 0,0 1.9593,6.4376 -0.2799,8.6768 l -3.9186,-7.2773 0.063,-0.063 -7.2773,-3.9186 c 2.2392,-2.2392 8.6768,-0.2799 8.6768,-0.2799 0,0 -0.6933,-0.6933 9.4702,-10.6901 -5.8102,-2.5905 -18.706799,-6.3836 -18.706799,-6.3836 -1.1196,-1.1195 0.839699,-3.0788 0.839699,-3.0788 1.5518,-0.3104 4.3727,-0.169 7.6397,0.1974 l 1.8768,-1.8768 c 0.6183,-0.6183 1.6208,-0.6183 2.2392,0 0.6183,0.6183 0.6183,1.6208 0,2.2392 l -0.1535,0.1535 2.9106,0.448 2.0011,-2.001 c 0.6183,-0.6184 1.6208,-0.6184 2.2392,0 0.6183,0.6183 0.6183,1.6208 0,2.2392 l -0.414,0.4139 6.3088,1.195 c 10.3871,-9.3824 10.899,-7.2068 10.899,-7.2068 z"
       id="path4-5" />
    <path
       style="fill:#000000;fill-opacity:1;stroke-width:0.2;stroke-linejoin:round"
       inkscape:connector-curvature="0"
       d="m -142.37616,968.36223 c 2.9455,0 5.3333,2.3878 5.3333,5.3333 0,2.9455 -2.3878,5.3334 -5.3333,5.3334 -2.9455,0 -5.3333,-2.3879 -5.3333,-5.3334 0,-2.9455 2.3878,-5.3333 5.3333,-5.3333 z m -5.3334,17.3834 c -0.7111,0.3555 -1.8833,3.4499 -1.2404,3.8667 l -3.4622,-0.6369 c 2.3553,-0.8532 2.8271,-2.2788 3.0183,-4.8797 l -0.1814,-1.6172 c 0.7735,-0.6438 1.9176,-2.0662 2.9324,-2.0661 l 8.5333,0 c 1.0371,-10e-5 1.9483,0.4411 2.7333,1.1091 l 0.5,1.8408 c 0,2.1735 1.6557,2.827 3.3861,3.8797 l -2.4194,-0.051 c -0.629,-0.022 -1.2115,0.1191 -1.7478,0.3767 -0.4543,-0.7807 -1.0159,-1.6377 -1.3855,-1.8225 l 0.1201,2.7001 c -2.2578,2.0734 -3.3868,5.9844 -3.3868,5.9844 l -0.3902,1.9374 -1.1431,0.045 c -0.7672,0 -1.5204,-0.06 -2.2551,-0.1755 -0.5849,-1.5537 -1.8599,-4.3583 -3.8249,-5.6666 l 0.2133,-4.8245 z m -7.9333,-7.4334 c 2.9456,0 5.3334,2.3878 5.3334,5.3333 0,2.9455 -2.3878,5.3334 -5.3334,5.3334 -2.9455,0 -5.3333,-2.3879 -5.3333,-5.3334 0,-2.9455 2.3878,-5.3333 5.3333,-5.3333 z m -5.3333,17.3833 c -0.7111,0.3556 -2.1333,3.2 -2.1333,3.2 0,0 -0.7111,1.0667 -1.0667,5.33327 l -3.2,-1.0666 1.0667,-5.33327 c 0,0 2.1333,-7.4667 6.3999,-7.4666 l 8.5333,0 c 4.2668,-1e-4 6.4001,7.4666 6.4001,7.4666 l 1.0666,5.33327 -3.1999,1.0667 c -0.3556,-4.26667 -1.0666,-5.33337 -1.0666,-5.33337 0,0 -1.4223,-2.8444 -2.1334,-3.2 l 0.4309,9.68707 c -1.6214,0.6325 -3.3856,0.9796 -5.2309,0.9796 -2.2494,0 -4.3783,-0.5157 -6.2749,-1.4354 l 0.4082,-9.23127 z m 32.3333,-19.4023 c 2.9455,0.1049 5.3334,2.5777 5.3334,5.5232 0,2.9455 -2.3879,5.2483 -5.3334,5.1435 -2.9455,-0.1049 -5.3333,-2.5777 -5.3333,-5.5232 0,-2.9455 2.3878,-5.2483 5.3333,-5.1435 z m -5.3333,17.1935 c -0.7111,0.3302 -2.1333,3.124 -2.1333,3.124 0,0 -0.7111,1.0413 -1.0667,5.29527 l -3.2,-1.1806 1.0667,-5.29527 c 0,0 2.1333,-7.3907 6.3999,-7.2387 l 8.5333,0.3038 c 4.2668,0.1518 6.4001,7.6944 6.4001,7.6944 l 1.0666,5.37137 -3.1999,0.9527 c -0.3556,-4.27927 -1.0666,-5.37127 -1.0666,-5.37127 0,0 -1.4223,-2.8951 -2.1334,-3.276 l 0.4309,9.70247 c -1.6214,0.5747 -3.3856,0.859 -5.2309,0.7933 -2.2494,-0.08 -4.3783,-0.6716 -6.2749,-1.6588 l 0.4082,-9.21667 z"
       id="path4-9" />
    <path
       style="fill:#000000;fill-opacity:1;stroke-width:0.2;stroke-linejoin:round"
       inkscape:connector-curvature="0"
       d="m -78.148743,1026.1479 1.5833,0.1496 0,-23.8996 25.3333,-4.74997 0,28.49997 c 0,2.6234 -2.8355,4.75 -6.3333,4.75 -3.4978,0 -6.3333,-2.1266 -6.3333,-4.75 0,-2.6234 2.8355,-4.75 6.3333,-4.75 0.5467,0 1.0773,0.052 1.5833,0.1497 l 0,-18.2591 -15.8333,2.9688 0,24.6406 c 0,2.6234 -2.8355,4.75 -6.3333,4.75 -3.4978,0 -6.3334,-2.1266 -6.3334,-4.75 0,-2.6234 2.8356,-4.75 6.3334,-4.75 z"
       id="path4-95" />
    <path
       style="fill:#000000;fill-opacity:1;stroke-width:0.2;stroke-linejoin:round"
       inkscape:connector-curvature="0"
       d="m -252.84989,903.3622 3,0 0,35 39,0 0,3 -42,0 0,-38 z m 5,33 0,-5 9.6667,-10.5833 14.25,6.3333 7.2699,-12.7223 -5.188,1.4876 -2.3948,-2.6076 12.176,-3.4914 3.4914,12.176 -3.4804,-0.6491 -1.6007,-5.582 -8.6901,16.1388 -15.0833,-6.8333 -10.4167,11.3333 z"
       id="path4-12" />
    <path
       style="fill:#000000;fill-opacity:1;stroke-width:0.2;stroke-linejoin:round"
       inkscape:connector-curvature="0"
       d="m -56.142857,584.07648 28,0 c 2.7614,0 5,2.2386 5,5 l 0,28 c 0,2.7614 -2.2386,5 -5,5 l -28,0 c -2.7614,0 -5,-2.2386 -5,-5 l 0,-28 c 0,-2.7614 2.2386,-5 5,-5 z m -1e-4,3 c -1.1046,0 -2,0.8954 -2,2 l 0,28 c 0,1.1046 0.8954,2 2,2 l 28,0 c 1.1045,0 2,-0.8954 2,-2 l 0,-28 c 0,-1.1046 -0.8955,-2 -2,-2 l -28,0 z m 14,14 c 1.1046,0 2,0.8954 2,2 0,1.1046 -0.8954,2 -2,2 -1.1046,0 -2,-0.8954 -2,-2 0,-1.1046 0.8954,-2 2,-2 z m 12.5409,5.0269 c -1.2251,-0.5246 -2.4805,-0.8456 -3.7181,-0.9649 -1.2377,-0.1192 -2.4574,-0.0367 -3.6771,0.0457 0.2044,1.6205 0.4089,3.241 0.3797,4.8855 -0.0291,1.6444 -0.292,3.3127 -0.7909,4.9518 -0.2564,0.8423 -0.5751,1.6769 -0.9551,2.4965 l -0.5769,0.1451 c -0.8936,0.2063 -1.787,0.3281 -2.6719,0.3706 0.155,-0.6548 0.2613,-1.3071 0.3198,-1.9513 0.1204,-1.3273 0.0377,-2.6205 -0.2313,-3.8344 -0.2691,-1.2139 -0.7244,-2.3484 -1.1798,-3.483 -1.478,0.6953 -2.956,1.3905 -4.529,1.8709 -1.5729,0.4804 -3.2408,0.746 -4.9538,0.778 -0.882,0.0165 -1.7759,-0.029 -2.6745,-0.1375 -0.5941,-0.9055 -1.0957,-1.8856 -1.4885,-2.9299 0.6703,-0.055 1.3232,-0.1554 1.9537,-0.2988 1.2995,-0.2956 2.5039,-0.7739 3.5752,-1.4049 1.0714,-0.6309 2.0097,-1.4146 2.948,-2.1983 -1.1179,-1.1908 -2.2359,-2.3816 -3.1788,-3.7292 -0.943,-1.3475 -1.711,-2.8517 -2.2707,-4.471 -0.2878,-0.8323 -0.5205,-1.695 -0.6949,-2.5816 0.684,-0.8541 1.4627,-1.6357 2.325,-2.3271 0.2595,0.6211 0.5571,1.2116 0.8886,1.7674 0.6827,1.1446 1.5097,2.1422 2.4409,2.9661 0.9312,0.8239 1.9664,1.4741 3.0017,2.1244 0.7871,-1.4312 1.5742,-2.8625 2.5643,-4.1757 0.9902,-1.3132 2.1835,-2.5084 3.5505,-3.5411 0.703,-0.5312 1.452,-1.0193 2.2417,-1.4593 1.0292,0.3906 2.0111,0.8927 2.9278,1.495 -0.5094,0.4381 -0.9782,0.9028 -1.4036,1.389 -0.8775,1.003 -1.5708,2.0978 -2.0666,3.238 -0.4959,1.1402 -0.7943,2.3257 -1.0928,3.5112 1.6044,0.3063 3.2087,0.6126 4.7637,1.1485 1.5549,0.5359 3.0603,1.3015 4.465,2.2824 0.7231,0.5051 1.4195,1.0672 2.0827,1.6831 -0.0525,1.1088 -0.2283,2.1966 -0.5167,3.2461 -0.5749,-0.3498 -1.1625,-0.6526 -1.7573,-0.9073 z m -12.5409,-6.5269 c -1.933,0 -3.5,1.567 -3.5,3.5 0,1.933 1.567,3.5 3.5,3.5 1.933,0 3.5,-1.567 3.5,-3.5 0,-1.933 -1.567,-3.5 -3.5,-3.5 z"
       id="path4-41" />
    <path
       style="fill:#000000;fill-opacity:1;stroke-linejoin:round"
       inkscape:connector-curvature="0"
       d="m -67.428569,701.43358 0,2 -8,2 0,-2 8,-2 z m 0,3 0,2 -8,2 0,-2 8,-2 z m 0,-4 -8,2 c 0,0 0,-3 -1.7344,-4 0,0 -0.0156,-13 -5.0156,-21.9999 0,0 -2.25,-6 10.75,-6 12.9999,0 10.7499,6 10.7499,6 -5,8.9999 -4.75,21.9999 -4.75,21.9999 -1.9999,0 -1.9999,2 -1.9999,2 z m -4,-18.9999 c 3,0 5.9999,0.4999 5.9999,0.4999 l 2.25,-4.4999 c 2.25,-5 -4.25,-5 -8.2499,-5 -4,0 -10.5,0 -8.25,5 l 2.25,4.4999 c 0,0 3,-0.4999 6,-0.4999 z m 2,26.4999 0,1.5 -4,0 0,-0.5 4,-1 z m -2,-45.4999 c 0.5523,0 1,0.4477 1,1 l 0,3 c 0,0.5522 -0.4477,1 -1,1 -0.5523,0 -1,-0.4478 -1,-1 l 0,-3 c 0,-0.5523 0.4477,-1 1,-1 z m 9.2499,1.585 c 0.4782,0.2761 0.6421,0.8877 0.366,1.366 l -1.5,2.598 c -0.2762,0.4783 -0.8877,0.6422 -1.366,0.3661 -0.4783,-0.2762 -0.6422,-0.8878 -0.3661,-1.3661 l 1.5,-2.598 c 0.2762,-0.4783 0.8878,-0.6422 1.3661,-0.366 z m 8.1648,4.8284 c 0.2593,0.4877 0.0741,1.0932 -0.4135,1.3524 l -2.6488,1.4084 c -0.4877,0.2593 -1.0932,0.0742 -1.3524,-0.4134 -0.2593,-0.4877 -0.0742,-1.0932 0.4134,-1.3525 l 2.6489,-1.4084 c 0.4876,-0.2592 1.0931,-0.0741 1.3524,0.4135 z m 0.8353,9.3163 c -0.1149,0.5402 -0.6459,0.885 -1.1861,0.7702 l -2.9344,-0.6237 c -0.5402,-0.1148 -0.8851,-0.6459 -0.7703,-1.1861 0.1149,-0.5402 0.6459,-0.885 1.1861,-0.7702 l 2.9344,0.6237 c 0.5402,0.1148 0.8851,0.6459 0.7703,1.1861 z m -2.4868,6.4967 c -0.2068,0.5121 -0.7897,0.7595 -1.3018,0.5526 l -2.7815,-1.1238 c -0.512,-0.2069 -0.7594,-0.7897 -0.5526,-1.3018 0.2069,-0.5121 0.7898,-0.7595 1.3018,-0.5526 l 2.7816,1.1238 c 0.512,0.2069 0.7594,0.7897 0.5525,1.3018 z m -25.0131,-20.6415 c 0.4783,-0.2761 1.0899,-0.1122 1.366,0.3661 l 1.5,2.598 c 0.2762,0.4783 0.1123,1.0899 -0.366,1.366 -0.4783,0.2762 -1.0899,0.1123 -1.366,-0.366 l -1.5,-2.598 c -0.2762,-0.4783 -0.1123,-1.0899 0.366,-1.3661 z m -8.1648,4.8285 c 0.2593,-0.4877 0.8648,-0.6728 1.3524,-0.4135 l 2.6488,1.4084 c 0.4877,0.2593 0.6728,0.8648 0.4135,1.3524 -0.2593,0.4877 -0.8648,0.6728 -1.3524,0.4135 l -2.6488,-1.4084 c -0.4877,-0.2593 -0.6728,-0.8648 -0.4135,-1.3524 z m -0.8353,9.3162 c -0.1148,-0.5402 0.23,-1.0712 0.7703,-1.186 l 2.9344,-0.6237 c 0.5402,-0.1149 1.0712,0.23 1.186,0.7702 0.1148,0.5402 -0.23,1.0712 -0.7702,1.1861 l -2.9344,0.6237 c -0.5402,0.1148 -1.0713,-0.23 -1.1861,-0.7703 z m 2.4867,6.4968 c -0.2069,-0.5121 0.0405,-1.0949 0.5526,-1.3018 l 2.7815,-1.1238 c 0.5121,-0.2069 1.0949,0.0405 1.3018,0.5526 0.2069,0.512 -0.0405,1.0949 -0.5526,1.3018 l -2.7815,1.1238 c -0.512,0.2069 -1.0949,-0.0405 -1.3018,-0.5526 z"
       id="path4-50" />
    <path
       style="fill:#000000;fill-opacity:1;stroke-width:0.2;stroke-linejoin:round"
       inkscape:connector-curvature="0"
       d="m -71.738129,798.02291 0,-2.7709 6.3334,1.1875 0,1.5834 -6.3334,0 z m -3.1667,-5.1458 0,-2.7709 12.6667,1.5834 0,2.7708 -12.6667,-1.5833 z m 12.6667,-3.1667 -12.6666,-1.5833 0,-2.7709 12.6666,1.5834 0,2.7708 z m -6.3333,-34.4375 c 6.9956,0 12.6667,6.0255 12.6667,13.4583 0,4.9815 -6.3334,9.8574 -6.3334,11.6579 l 0,4.9671 -12.6666,-1.5833 0,-3.3838 c 0,-1.3662 -6.3334,-6.6764 -6.3334,-11.6579 0,-7.4328 5.6711,-13.4583 12.6667,-13.4583 z m -5.1458,10.2917 -1.1875,6.3333 1.9791,0 1.1875,-6.3333 -1.9791,0 z m 4.7499,0 -1.1874,6.3333 1.9791,0 1.1875,-6.3333 -1.9792,0 z m 4.7501,0 -1.1875,6.3333 1.9791,0 1.1875,-6.3333 -1.9791,0 z"
       id="path4-24" />
    <path
       style="fill:#000000;fill-opacity:1;stroke-width:0.2;stroke-linejoin:round"
       inkscape:connector-curvature="0"
       d="m -141,653.14792 0,2 -8,2 0,-2 8,-2 z m 0,3 0,2 -8,2 0,-2 8,-2 z m 0,-4 -8,2 c 0,0 0,-3 -1.7344,-4 0,0 -0.0156,-13 -5.0156,-22 0,0 -2.25,-6 10.75,-6 13,0 10.75,6 10.75,6 -5,9 -4.75,22 -4.75,22 -2,0 -2,2 -2,2 z m -4,-19 c 3,0 6,0.5 6,0.5 l 2.25,-4.5 c 2.25,-5 -4.25,-4.9999 -8.25,-5 -4,0 -10.5,0 -8.25,5 l 2.25,4.5 c 0,0 3,-0.5 6,-0.5 z m 2,26.5 0,1.5 -4,0 0,-0.5 4,-1 z"
       id="path4-90" />
    <path
       style="fill:#000000;fill-opacity:1;stroke-width:0.2;stroke-linejoin:round"
       inkscape:connector-curvature="0"
       d="m -216.02384,663.02291 0,-2.7709 6.3334,1.1875 0,1.5834 -6.3334,0 z m -3.1667,-5.1458 0,-2.7709 12.6667,1.5834 0,2.7708 -12.6667,-1.5833 z m 12.6667,-3.1667 -12.6667,-1.5833 0,-2.7709 12.6667,1.5834 0,2.7708 z m -6.3333,-34.4375 c 6.9956,0 12.6667,6.0255 12.6667,13.4583 0,4.9815 -6.3334,9.8574 -6.3334,11.6579 l 0,4.9671 -12.6666,-1.5833 0,-3.3838 c 0,-1.3662 -6.3334,-6.6764 -6.3334,-11.6579 0,-7.4328 5.6711,-13.4583 12.6667,-13.4583 z"
       id="path4-8" />
    <path
       style="fill:#000000;fill-opacity:1;stroke-width:0.2;stroke-linejoin:round"
       inkscape:connector-curvature="0"
       d="m -229.48457,723.27013 6.33425,-10e-5 9.50137,-7.91776 0,26.92061 -9.50137,-9.50137 -6.33425,0 c -1.74912,0 -3.16713,-1.41801 -3.16713,-3.16713 l 0,-3.16712 c 0,-1.74922 1.41801,-3.16713 3.16713,-3.16713 z m 36.42198,4.75064 c 0,4.81024 -1.94971,9.16497 -5.10194,12.3173 l -2.23951,-2.23952 c 2.57912,-2.57912 4.17433,-6.14215 4.17433,-10.07778 0,-3.97743 -1.62931,-7.57436 -4.25694,-10.15968 l 1.91432,-2.55242 c 3.39103,3.17823 5.50974,7.69776 5.50974,12.7121 z m -6.33425,0 c 0,3.46433 -1.58921,6.55745 -4.07833,8.59017 l -2.25562,-2.25552 c 1.92302,-1.44461 3.16683,-3.74433 3.16683,-6.33465 0,-2.59022 -1.24381,-4.89004 -3.16683,-6.33455 l 2.25562,-2.25562 c 2.48912,2.03272 4.07833,5.12584 4.07833,8.59017 z m -6.33425,0 c 0,2.11142 -1.37741,3.90113 -3.28272,4.51954 l -1.46791,-2.93593 c 0.8745,0 1.58351,-0.709 1.58351,-1.58361 0,-0.87461 -0.70901,-1.58351 -1.58351,-1.58351 l 1.46791,-2.93603 c 1.90531,0.61841 3.28272,2.40812 3.28272,4.51954 z"
       id="path4-60" />
    <path
       style="fill:#000000;fill-opacity:1;stroke-width:0.2;stroke-linejoin:round"
       inkscape:connector-curvature="0"
       d="m -145.17666,563.96748 5.1234,-16.651 c 5.4987,1.6899 9.8376,6.0289 11.5275,11.5276 l -16.6509,5.1234 z m -3.1666,-14.25 c 1.783,0 3.5035,0.2679 5.1233,0.7657 l -5.1233,16.6509 16.6509,-5.1233 c 0.4978,1.6198 0.7657,3.3403 0.7657,5.1233 0,9.619 -7.7977,17.4167 -17.4166,17.4167 -9.619,0 -17.4167,-7.7977 -17.4167,-17.4167 0,-9.6189 7.7977,-17.4166 17.4167,-17.4166 z"
       id="path4-63" />
    <path
       style="fill:#000000;fill-opacity:1;stroke-width:0.2;stroke-linejoin:round"
       inkscape:connector-curvature="0"
       d="m -180.28572,503.9455 c 0,9.619 -7.7977,17.4167 -17.4167,17.4167 l 0,-17.4167 17.4167,0 z m -20.5833,14.25 c -9.619,0 -17.4167,-7.7977 -17.4167,-17.4166 0,-9.619 7.7977,-17.4167 17.4167,-17.4167 9.6189,0 17.4166,7.7977 17.4166,17.4167 l -17.4166,0 0,17.4166 z"
       id="path4-91" />
    <path
       style="fill:#000000;fill-opacity:1;stroke-width:0.2;stroke-linejoin:round"
       inkscape:connector-curvature="0"
       d="m -119.06815,494.17767 3.63053,-0.44341 c 0.1026,0.92741 0.3802,1.63651 0.8326,2.12722 0.45251,0.4908 1.00021,0.7362 1.64312,0.7362 0.6888,0 1.26951,-0.2657 1.74231,-0.7972 0.4727,-0.53141 0.70901,-1.24861 0.70901,-2.15162 0,-0.85411 -0.21201,-1.53071 -0.63611,-2.02961 -0.4241,-0.49891 -0.94141,-0.74841 -1.55191,-0.74841 -0.4024,0 -0.88331,0.0881 -1.44241,0.2644 l 0.3322,-3.12782 c 0.81851,0.0244 1.44321,-0.17151 1.87401,-0.58771 0.43091,-0.4163 0.64631,-0.96741 0.64631,-1.65341 0,-0.58571 -0.1648,-1.05281 -0.4944,-1.40121 -0.32951,-0.3485 -0.76841,-0.52271 -1.31681,-0.52271 -0.53751,0 -0.99741,0.19931 -1.37962,0.59791 -0.3823,0.3986 -0.6153,0.98031 -0.699,1.74491 l -3.63043,-0.5247 c 0.2269,-1.14421 0.56861,-2.05802 1.02511,-2.74142 0.4565,-0.68331 1.09331,-1.22081 1.91041,-1.61272 0.81711,-0.3918 1.73222,-0.5877 2.74513,-0.5877 1.73691,0 3.12812,0.5586 4.17343,1.67581 0.86441,0.91651 1.29661,1.95092 1.29661,3.10333 0,1.63511 -0.90491,2.93942 -2.71472,3.91283 1.05891,0.2278 1.90571,0.7389 2.54052,1.53341 0.6348,0.79451 0.9522,1.75441 0.9522,2.87972 0,1.63242 -0.5882,3.02343 -1.76461,4.17314 -1.17641,1.1497 -2.63982,1.72461 -4.39023,1.72461 -1.66122,0 -3.03823,-0.51121 -4.13084,-1.53341 -1.09271,-1.02231 -1.72681,-2.35912 -1.90241,-4.01043 z m 21.924772,5.54384 -3.000522,0 0,-13.50211 c -1.33931,1.39111 -2.84722,2.27962 -4.66304,2.94493 l 0,-3.69493 c 0.95851,-0.30791 1.99932,-0.89081 3.12213,-1.74852 1.1229,-0.8578 1.893911,-1.85851 2.312914,-3.00222 l 2.228518,0 0,19.00285 z m -30.002442,5.00094 0,-34.00517 5.00074,0 0,-3.00042 c 10e-5,-1.10491 0.89561,-2.00032 2.00032,-2.00032 l 4.00053,0 c 1.10471,0 2.00022,0.89541 2.00032,2.00002 l 0,3.00072 14.00211,0 -1e-4,-3.00072 c 0,-1.10471 0.895605,-2.00032 2.000314,-2.00032 l 4.000632,0 c 1.104708,0 2.000216,0.89561 2.000216,2.00032 l 1e-4,3.00072 5.000739,0 0,34.00517 -40.005921,0 z m 3.00043,-3.00043 34.004967,0 0,-23.00358 -34.004967,0 0,23.00358 z m 27.504016,-34.00516 c -0.828607,0 -1.500212,0.6717 -1.500212,1.50021 l 0,3.00052 c 0,0.82851 0.671605,1.50021 1.500212,1.50021 l 1.000108,0 c 0.828606,0 1.500212,-0.6717 1.500212,-1.50021 l 0,-3.00052 c 0,-0.82851 -0.671606,-1.50021 -1.500212,-1.50021 l -1.000108,0 z m -22.003176,0 c -0.8286,0 -1.50021,0.6717 -1.50021,1.50021 l 0,3.00042 c 0,0.82861 0.67161,1.50021 1.50021,1.50021 l 1.00011,0 c 0.82861,0 1.50021,-0.6716 1.50021,-1.50021 l 0,-3.00042 c 0,-0.82851 -0.6716,-1.50021 -1.50021,-1.50021 l -1.00011,0 z"
       id="path4-3" />
    <rect
       ry="0"
       y="474.38058"
       x="882.01843"
       height="98.820335"
       width="118.82033"
       id="rect3886"
       style="fill:#214eff;fill-opacity:1;stroke:#005cff;stroke-width:1.17967296;stroke-linecap:round;stroke-miterlimit:4;stroke-opacity:1;stroke-dasharray:none" />
    <path
       id="path3888"
       d="m 923.54331,537.22625 5.44499,-0.66502 c 0.15388,1.39091 0.57022,2.45441 1.24872,3.19036 0.67866,0.73609 1.50009,1.10414 2.46431,1.10414 1.03305,0 1.90398,-0.39849 2.61308,-1.19562 0.70894,-0.797 1.06336,-1.87264 1.06336,-3.22696 0,-1.28097 -0.31797,-2.29572 -0.95403,-3.04396 -0.63605,-0.74826 -1.4119,-1.12245 -2.32752,-1.12245 -0.60351,0 -1.32477,0.13213 -2.16329,0.39654 l 0.49822,-4.69103 c 1.22759,0.0366 2.1645,-0.25723 2.8106,-0.88144 0.64627,-0.62436 0.96933,-1.4509 0.96933,-2.47975 0,-0.87843 -0.24717,-1.57898 -0.7415,-2.1015 -0.49419,-0.52267 -1.15244,-0.78395 -1.97492,-0.78395 -0.80614,0 -1.49589,0.29892 -2.06912,0.89673 -0.57337,0.59781 -0.92281,1.47025 -1.04835,2.61698 l -5.44484,-0.78693 c 0.3403,-1.71606 0.85279,-3.08658 1.53744,-4.11153 0.68465,-1.02481 1.63972,-1.83094 2.86519,-2.41872 1.22549,-0.58761 2.59795,-0.88142 4.11709,-0.88142 2.60498,0 4.69148,0.83778 6.25922,2.51335 1.29642,1.37456 1.94462,2.92594 1.94462,4.6543 0,2.4523 -1.35716,4.40848 -4.07147,5.86838 1.58813,0.34165 2.85814,1.10818 3.81021,2.29977 0.95206,1.19159 1.42809,2.63123 1.42809,4.31894 0,2.44827 -0.88217,4.53448 -2.64652,6.25879 -1.76436,1.72429 -3.95915,2.58653 -6.58437,2.58653 -2.49146,0 -4.55667,-0.7667 -6.19535,-2.29977 -1.63882,-1.53324 -2.58983,-3.53816 -2.85319,-6.01476 z m 32.88229,8.31453 -4.50011,0 0,-20.25017 c -2.00867,2.08636 -4.2702,3.41893 -6.99353,4.41674 l 0,-5.54157 c 1.43755,-0.4618 2.99854,-1.33602 4.6825,-2.62239 1.6841,-1.28651 2.84045,-2.78736 3.46887,-4.50267 l 3.34227,0 0,28.50006 z m -44.997,7.5003 0,-51.00021 7.5,0 0,-4.49996 c 1.5e-4,-1.65712 1.34322,-3.00004 3.00004,-3.00004 l 5.9999,0 c 1.65682,0 2.99989,1.34292 3.00004,2.99959 l 0,4.50041 21.00006,0 -1.5e-4,-4.50041 c 0,-1.65682 1.34321,-3.00004 3.00003,-3.00004 l 6.00006,0 c 1.65682,0 2.99987,1.34322 2.99987,3.00004 l 1.5e-4,4.50041 7.5,0 0,51.00021 -60,0 z m 4.49998,-4.49998 50.99991,0 0,-34.50026 -50.99991,0 0,34.50026 z m 41.24992,-51.00019 c -1.24273,0 -2.24998,1.0074 -2.24998,2.24998 l 0,4.50012 c 0,1.24258 1.00725,2.24998 2.24998,2.24998 l 1.49995,0 c 1.24271,0 2.24998,-1.0074 2.24998,-2.24998 l 0,-4.50012 c 0,-1.24258 -1.00727,-2.24998 -2.24998,-2.24998 l -1.49995,0 z m -32.99988,0 c -1.24272,0 -2.24998,1.0074 -2.24998,2.24998 l 0,4.49997 c 0,1.24273 1.00726,2.24998 2.24998,2.24998 l 1.49994,0 c 1.24273,0 2.24998,-1.00725 2.24998,-2.24998 l 0,-4.49997 c 0,-1.24258 -1.00725,-2.24998 -2.24998,-2.24998 l -1.49994,0 z"
       inkscape:connector-curvature="0"
       style="fill:#ffffff;fill-opacity:1;stroke-width:0.2;stroke-linejoin:round"
       inkscape:export-filename="M:\RobDev\Projects\HomeAutomation\WallTablet\Software\HomeTabletLocalApp\www\img\calendar.png"
       inkscape:export-xdpi="107.69107"
       inkscape:export-ydpi="107.69107" />
    <rect
       style="fill:#214eff;fill-opacity:1;stroke:#005cff;stroke-width:1.17967296;stroke-linecap:round;stroke-miterlimit:4;stroke-opacity:1;stroke-dasharray:none"
       id="rect3890"
       width="118.82033"
       height="98.820335"
       x="882.73273"
       y="591.52344"
       ry="0" />
    <g
       id="g4016"
       transform="translate(-19.285714,0)">
      <path
         sodipodi:nodetypes="ccccccccccccccccccc"
         style="fill:#ffffff;fill-opacity:1;stroke:#ffffff;stroke-width:0.2;stroke-linejoin:round;stroke-opacity:1"
         inkscape:connector-curvature="0"
         id="path4-7"
         d="m -39.891038,846.3622 9,0 0,-14 -22,0 0,14 9,0 0,-0.87288 4,0 z m 13,-17.9999 0,37.9999 -30,0 0,-37.9999 z m -26,20.9999 0,13 22,0 0,-13 z" />
      <path
         sodipodi:nodetypes="cscccccc"
         inkscape:connector-curvature="0"
         d="m -38.677796,833.09915 c 0,0 -4.462565,-1.00472 -8.84684,-0.0478 -4.384274,0.95688 -8.455385,-0.0728 -8.455385,-0.0728 l 0.08051,-3.75023 27.855932,0.14716 0.241525,3.71344 c -5.160527,1.15854 -10.875741,0.0103 -10.875741,0.0103 z"
         style="fill:#ffffff;fill-opacity:1;stroke:#ffffff;stroke-width:1px;stroke-linecap:butt;stroke-linejoin:miter;stroke-opacity:1"
         id="path2989" />
      <path
         sodipodi:nodetypes="ccsccsccc"
         inkscape:connector-curvature="0"
         d="m -27.600784,836.36492 c -5.402052,1.30873 -11.117266,0.0524 -11.117266,0.0524 0,0 -4.462565,-1.09933 -8.84684,-0.0524 -4.384274,1.04698 -8.455385,0 -8.455385,0 l -0.133983,-1.70784 c 1.142468,0.0878 4.094441,1.03929 8.475512,0 4.385836,-1.04043 8.84684,0.0524 8.84684,0.0524 0,0 5.715214,1.25638 11.117266,-0.0524 z"
         style="fill:#ffffff;fill-opacity:1;stroke:#ffffff;stroke-width:1px;stroke-linecap:butt;stroke-linejoin:miter;stroke-opacity:1"
         id="path3780" />
      <path
         id="path3787"
         style="fill:#ffffff;fill-opacity:1;stroke:#ffffff;stroke-width:1px;stroke-linecap:butt;stroke-linejoin:miter;stroke-opacity:1"
         d="m -27.600784,839.81172 c -5.402052,1.30873 -11.117266,0.0523 -11.117266,0.0523 0,0 -4.462565,-1.09933 -8.84684,-0.0523 -4.384274,1.04699 -8.455385,0 -8.455385,0 l -0.133983,-1.70784 c 1.142468,0.0878 4.094441,1.0393 8.475512,0 4.385836,-1.04043 8.84684,0.0524 8.84684,0.0524 0,0 5.715214,1.25638 11.117266,-0.0524 z"
         inkscape:connector-curvature="0"
         sodipodi:nodetypes="ccsccsccc" />
      <path
         sodipodi:nodetypes="ccsccsccc"
         inkscape:connector-curvature="0"
         d="m -27.600784,843.12859 c -5.402052,1.30873 -11.117266,0.0523 -11.117266,0.0523 0,0 -4.462565,-1.09934 -8.84684,-0.0523 -4.384274,1.04698 -8.455385,0 -8.455385,0 l -0.133983,-1.70785 c 1.142468,0.0878 4.094441,1.0393 8.475512,0 4.385836,-1.04042 8.84684,0.0524 8.84684,0.0524 0,0 5.715214,1.25638 11.117266,-0.0524 z"
         style="fill:#ffffff;fill-opacity:1;stroke:#ffffff;stroke-width:1px;stroke-linecap:butt;stroke-linejoin:miter;stroke-opacity:1"
         id="path3789" />
      <path
         id="path4-1-2"
         d="m -40.659226,850.87914 -2.11138,0 0,6.53208 -2.639225,-2.63923 0,2.77119 3.694915,3.69492 3.694916,-3.69492 0,-2.77119 -2.639226,2.63923 0,-6.53208 z"
         inkscape:connector-curvature="0"
         style="fill:#ffffff;fill-opacity:1;stroke:#ffffff;stroke-width:0.2;stroke-linejoin:round;stroke-opacity:1" />
    </g>
    <g
       id="g4024">
      <path
         sodipodi:nodetypes="ccccccccccccccccccc"
         style="fill:#ffffff;fill-opacity:1;stroke:#ffffff;stroke-width:0.2;stroke-linejoin:round;stroke-opacity:1"
         inkscape:connector-curvature="0"
         id="path4-0"
         d="m -234.17675,830.64791 9,0 0,-14 -22,0 0,14 9,0 0,-0.87288 4,0 z m 13,-17.9999 0,37.9999 -30,0 0,-37.9999 z m -26,20.9999 0,13 22,0 0,-13 z" />
      <path
         sodipodi:nodetypes="cscccccc"
         inkscape:connector-curvature="0"
         d="m -232.96351,817.38486 c 0,0 -4.46256,-1.00472 -8.84684,-0.0478 -4.38427,0.95688 -8.45538,-0.0728 -8.45538,-0.0728 l 0.0805,-3.75023 27.85593,0.14716 0.24152,3.71344 c -5.16052,1.15854 -10.87574,0.0103 -10.87574,0.0103 z"
         style="fill:#ffffff;fill-opacity:1;stroke:#ffffff;stroke-width:1px;stroke-linecap:butt;stroke-linejoin:miter;stroke-opacity:1"
         id="path2989-1" />
      <path
         sodipodi:nodetypes="ccsccsccc"
         inkscape:connector-curvature="0"
         d="m -221.8865,820.65063 c -5.40205,1.30873 -11.11726,0.0524 -11.11726,0.0524 0,0 -4.46257,-1.09933 -8.84684,-0.0524 -4.38428,1.04698 -8.45539,0 -8.45539,0 l -0.13398,-1.70784 c 1.14247,0.0878 4.09444,1.03929 8.47551,0 4.38584,-1.04043 8.84684,0.0524 8.84684,0.0524 0,0 5.71522,1.25638 11.11727,-0.0524 z"
         style="fill:#ffffff;fill-opacity:1;stroke:#ffffff;stroke-width:1px;stroke-linecap:butt;stroke-linejoin:miter;stroke-opacity:1"
         id="path3780-6" />
      <path
         id="path3787-5"
         style="fill:#ffffff;fill-opacity:1;stroke:#ffffff;stroke-width:1px;stroke-linecap:butt;stroke-linejoin:miter;stroke-opacity:1"
         d="m -221.8865,824.09743 c -5.40205,1.30873 -11.11726,0.0523 -11.11726,0.0523 0,0 -4.46257,-1.09933 -8.84684,-0.0523 -4.38428,1.04699 -8.45539,0 -8.45539,0 l -0.13398,-1.70784 c 1.14247,0.0878 4.09444,1.0393 8.47551,0 4.38584,-1.04043 8.84684,0.0524 8.84684,0.0524 0,0 5.71522,1.25638 11.11727,-0.0524 z"
         inkscape:connector-curvature="0"
         sodipodi:nodetypes="ccsccsccc" />
      <path
         sodipodi:nodetypes="ccsccsccc"
         inkscape:connector-curvature="0"
         d="m -221.8865,827.4143 c -5.40205,1.30873 -11.11726,0.0523 -11.11726,0.0523 0,0 -4.46257,-1.09934 -8.84684,-0.0523 -4.38428,1.04698 -8.45539,0 -8.45539,0 l -0.13398,-1.70785 c 1.14247,0.0878 4.09444,1.0393 8.47551,0 4.38584,-1.04042 8.84684,0.0524 8.84684,0.0524 0,0 5.71522,1.25638 11.11727,-0.0524 z"
         style="fill:#ffffff;fill-opacity:1;stroke:#ffffff;stroke-width:1px;stroke-linecap:butt;stroke-linejoin:miter;stroke-opacity:1"
         id="path3789-7" />
      <rect
         ry="0"
         rx="0"
         y="836.81738"
         x="-239.71869"
         height="7"
         width="7"
         id="rect3802"
         style="fill:#ffffff;fill-opacity:1;stroke:none" />
    </g>
    <g
       id="g4007">
      <g
         transform="translate(-272.74818,967.21934)"
         inkscape:export-ydpi="164.96484"
         inkscape:export-xdpi="164.96484"
         inkscape:export-filename="\\MACALLAN\Main\RobDev\Projects\HomeAutomation\WallTablet\Software\V3\HomeTabletLocalApp\www\img\blinds-up.png"
         style="fill:#ffffff;fill-opacity:1;stroke:#ffffff;stroke-opacity:1"
         id="g2995">
        <path
           d="m 40,37 9,0 0,-14 -22,0 0,14 9,0 0,-0.872881 4,0 z M 53,19.0001 53,57 23,57 23,19.0001 z M 27,40 l 0,13 22,0 0,-13 z"
           id="path4-412"
           inkscape:connector-curvature="0"
           style="fill:#ffffff;fill-opacity:1;stroke:#ffffff;stroke-width:0.2;stroke-linejoin:round;stroke-opacity:1"
           sodipodi:nodetypes="ccccccccccccccccccc" />
        <path
           id="path2989-0"
           style="fill:#ffffff;fill-opacity:1;stroke:#ffffff;stroke-width:1px;stroke-linecap:butt;stroke-linejoin:miter;stroke-opacity:1"
           d="m 41.213242,23.736953 c 0,0 -4.462565,-1.004722 -8.84684,-0.04784 -4.384274,0.956878 -8.455385,-0.07281 -8.455385,-0.07281 l 0.08051,-3.750236 27.855932,0.14716 0.241525,3.713445 c -5.160527,1.15854 -10.875741,0.01032 -10.875741,0.01032 z"
           inkscape:connector-curvature="0"
           sodipodi:nodetypes="cscccccc" />
        <path
           id="path3780-0"
           style="fill:#ffffff;fill-opacity:1;stroke:#ffffff;stroke-width:1px;stroke-linecap:butt;stroke-linejoin:miter;stroke-opacity:1"
           d="m 52.290254,27.00272 c -5.402052,1.308731 -11.117266,0.05235 -11.117266,0.05235 0,0 -4.462565,-1.099334 -8.84684,-0.05235 -4.384274,1.046984 -8.455385,0 -8.455385,0 L 23.73678,25.294878 c 1.142468,0.08779 4.094441,1.039296 8.475512,0 4.385836,-1.040426 8.84684,0.05235 8.84684,0.05235 0,0 5.715214,1.256381 11.117266,-0.05235 z"
           inkscape:connector-curvature="0"
           sodipodi:nodetypes="ccsccsccc" />
        <path
           sodipodi:nodetypes="ccsccsccc"
           inkscape:connector-curvature="0"
           d="m 52.290254,30.449523 c -5.402052,1.308731 -11.117266,0.05235 -11.117266,0.05235 0,0 -4.462565,-1.099334 -8.84684,-0.05235 -4.384274,1.046984 -8.455385,0 -8.455385,0 L 23.73678,28.741681 c 1.142468,0.08779 4.094441,1.039296 8.475512,0 4.385836,-1.040426 8.84684,0.05235 8.84684,0.05235 0,0 5.715214,1.256381 11.117266,-0.05235 z"
           style="fill:#ffffff;fill-opacity:1;stroke:#ffffff;stroke-width:1px;stroke-linecap:butt;stroke-linejoin:miter;stroke-opacity:1"
           id="path3787-1" />
        <path
           id="path3789-4"
           style="fill:#ffffff;fill-opacity:1;stroke:#ffffff;stroke-width:1px;stroke-linecap:butt;stroke-linejoin:miter;stroke-opacity:1"
           d="m 52.290254,33.766387 c -5.402052,1.308731 -11.117266,0.05235 -11.117266,0.05235 0,0 -4.462565,-1.099334 -8.84684,-0.05235 -4.384274,1.046984 -8.455385,0 -8.455385,0 L 23.73678,32.058545 c 1.142468,0.08779 4.094441,1.039296 8.475512,0 4.385836,-1.040426 8.84684,0.05235 8.84684,0.05235 0,0 5.715214,1.256381 11.117266,-0.05235 z"
           inkscape:connector-curvature="0"
           sodipodi:nodetypes="ccsccsccc" />
        <path
           style="fill:#ffffff;fill-opacity:1;stroke:#ffffff;stroke-width:0.2;stroke-linejoin:round;stroke-opacity:1"
           inkscape:connector-curvature="0"
           d="m 37.120433,51.875895 2.11138,0 0,-6.532082 2.639225,2.639225 0,-2.771187 -3.694915,-3.694915 -3.694916,3.694915 0,2.771187 2.639226,-2.639225 0,6.532082 z"
           id="path4-1-6" />
      </g>
    </g>
    <g
       transform="matrix(1.5562914,0,0,1.5706847,1007.4179,-691.61961)"
       id="g4032">
      <path
         d="m -39.891038,846.3622 9,0 0,-14 -22,0 0,14 9,0 0,-0.87288 4,0 z m 13,-17.9999 0,37.9999 -30,0 0,-37.9999 z m -26,20.9999 0,13 22,0 0,-13 z"
         id="path4034"
         inkscape:connector-curvature="0"
         style="fill:#ffffff;fill-opacity:1;stroke:#ffffff;stroke-width:0.2;stroke-linejoin:round;stroke-opacity:1"
         sodipodi:nodetypes="ccccccccccccccccccc" />
      <path
         id="path4036"
         style="fill:#ffffff;fill-opacity:1;stroke:#ffffff;stroke-width:1px;stroke-linecap:butt;stroke-linejoin:miter;stroke-opacity:1"
         d="m -38.677796,833.09915 c 0,0 -4.462565,-1.00472 -8.84684,-0.0478 -4.384274,0.95688 -8.455385,-0.0728 -8.455385,-0.0728 l 0.08051,-3.75023 27.855932,0.14716 0.241525,3.71344 c -5.160527,1.15854 -10.875741,0.0103 -10.875741,0.0103 z"
         inkscape:connector-curvature="0"
         sodipodi:nodetypes="cscccccc" />
      <path
         id="path4038"
         style="fill:#ffffff;fill-opacity:1;stroke:#ffffff;stroke-width:1px;stroke-linecap:butt;stroke-linejoin:miter;stroke-opacity:1"
         d="m -27.600784,836.36492 c -5.402052,1.30873 -11.117266,0.0524 -11.117266,0.0524 0,0 -4.462565,-1.09933 -8.84684,-0.0524 -4.384274,1.04698 -8.455385,0 -8.455385,0 l -0.133983,-1.70784 c 1.142468,0.0878 4.094441,1.03929 8.475512,0 4.385836,-1.04043 8.84684,0.0524 8.84684,0.0524 0,0 5.715214,1.25638 11.117266,-0.0524 z"
         inkscape:connector-curvature="0"
         sodipodi:nodetypes="ccsccsccc" />
      <path
         sodipodi:nodetypes="ccsccsccc"
         inkscape:connector-curvature="0"
         d="m -27.600784,839.81172 c -5.402052,1.30873 -11.117266,0.0523 -11.117266,0.0523 0,0 -4.462565,-1.09933 -8.84684,-0.0523 -4.384274,1.04699 -8.455385,0 -8.455385,0 l -0.133983,-1.70784 c 1.142468,0.0878 4.094441,1.0393 8.475512,0 4.385836,-1.04043 8.84684,0.0524 8.84684,0.0524 0,0 5.715214,1.25638 11.117266,-0.0524 z"
         style="fill:#ffffff;fill-opacity:1;stroke:#ffffff;stroke-width:1px;stroke-linecap:butt;stroke-linejoin:miter;stroke-opacity:1"
         id="path4040" />
      <path
         id="path4042"
         style="fill:#ffffff;fill-opacity:1;stroke:#ffffff;stroke-width:1px;stroke-linecap:butt;stroke-linejoin:miter;stroke-opacity:1"
         d="m -27.600784,843.12859 c -5.402052,1.30873 -11.117266,0.0523 -11.117266,0.0523 0,0 -4.462565,-1.09934 -8.84684,-0.0523 -4.384274,1.04698 -8.455385,0 -8.455385,0 l -0.133983,-1.70785 c 1.142468,0.0878 4.094441,1.0393 8.475512,0 4.385836,-1.04042 8.84684,0.0524 8.84684,0.0524 0,0 5.715214,1.25638 11.117266,-0.0524 z"
         inkscape:connector-curvature="0"
         sodipodi:nodetypes="ccsccsccc" />
      <path
         style="fill:#ffffff;fill-opacity:1;stroke:#ffffff;stroke-width:0.2;stroke-linejoin:round;stroke-opacity:1"
         inkscape:connector-curvature="0"
         d="m -40.659226,850.87914 -2.11138,0 0,6.53208 -2.639225,-2.63923 0,2.77119 3.694915,3.69492 3.694916,-3.69492 0,-2.77119 -2.639226,2.63923 0,-6.53208 z"
         id="path4044" />
    </g>
    <rect
       ry="0"
       y="707.95203"
       x="882.73273"
       height="98.820335"
       width="118.82033"
       id="rect4048"
       style="fill:#214eff;fill-opacity:1;stroke:#005cff;stroke-width:1.17967296;stroke-linecap:round;stroke-miterlimit:4;stroke-opacity:1;stroke-dasharray:none" />
    <path
       id="path4046"
       d="m 924.0894,772.79075 2.49995,0.23621 0,-37.73624 39.99998,-7.49996 0,44.99999 c 0,4.14221 -4.47711,7.5 -9.99995,7.5 -5.52285,0 -9.99996,-3.35779 -9.99996,-7.5 0,-4.14222 4.47711,-7.50001 9.99996,-7.50001 0.86321,0 1.701,0.0821 2.49995,0.23637 l 0,-28.83018 -24.99997,4.68758 0,38.90624 c 0,4.14222 -4.47711,7.50001 -9.99996,7.50001 -5.52284,0 -10.00011,-3.35779 -10.00011,-7.50001 0,-4.14221 4.47727,-7.5 10.00011,-7.5 z"
       inkscape:connector-curvature="0"
       style="fill:#ffffff;fill-opacity:1;stroke-width:0.2;stroke-linejoin:round" />
    <rect
       style="fill:#214eff;fill-opacity:1;stroke:#005cff;stroke-width:1.17967296;stroke-linecap:round;stroke-miterlimit:4;stroke-opacity:1;stroke-dasharray:none"
       id="rect4050"
       width="118.82033"
       height="98.820335"
       x="882.73273"
       y="823.66632"
       ry="0" />
    <path
       id="path4052"
       d="m 909.29297,842.79077 4.73684,0 0,55.26316 61.57895,0 0,4.73684 -66.31579,0 0,-60 z m 7.89474,52.10526 0,-7.89473 15.26321,-16.71048 22.5,9.99995 11.47879,-20.08784 -8.19158,2.34884 -3.78127,-4.11726 19.22527,-5.51274 5.51273,19.22526 -5.49536,-1.02489 -2.52742,-8.81369 -13.72122,25.48232 -23.81573,-10.78942 -16.44742,17.89468 z"
       inkscape:connector-curvature="0"
       style="fill:#ffffff;fill-opacity:1;stroke-width:0.2;stroke-linejoin:round"
       inkscape:export-filename="M:\RobDev\Projects\HomeAutomation\WallTablet\Software\HomeTabletLocalApp\www\img\energy.png"
       inkscape:export-xdpi="105"
       inkscape:export-ydpi="105" />
    <rect
       style="fill:#214eff;fill-opacity:1;stroke:#005cff;stroke-width:2.14802194;stroke-linecap:round;stroke-miterlimit:4;stroke-opacity:1;stroke-dasharray:none"
       id="rect4054"
       width="397.85199"
       height="97.851982"
       x="438.21689"
       y="592.72192"
       ry="0" />
    <rect
       ry="0"
       y="824.92462"
       x="442.27673"
       height="207.58949"
       width="396.87521"
       id="rect4056"
       style="fill:#214eff;fill-opacity:1;stroke:#005cff;stroke-width:3.12480402;stroke-linecap:round;stroke-miterlimit:4;stroke-opacity:1;stroke-dasharray:none" />
    <text
       xml:space="preserve"
       style="font-size:40px;font-style:normal;font-weight:normal;line-height:125%;letter-spacing:0px;word-spacing:0px;fill:#ffffff;fill-opacity:1;stroke:none;font-family:Sans"
       x="463.76395"
       y="896.68835"
       id="text4058"
       sodipodi:linespacing="125%"><tspan
         sodipodi:role="line"
         x="463.76395"
         y="896.68835"
         style="font-size:40px;font-style:normal;font-variant:normal;font-weight:normal;font-stretch:normal;font-family:Arial;-inkscape-font-specification:Arial"
         id="tspan4060">TUE 24TH MARCH</tspan></text>
    <text
       xml:space="preserve"
       style="font-size:40px;font-style:normal;font-weight:normal;line-height:125%;letter-spacing:0px;word-spacing:0px;fill:#ffffff;fill-opacity:1;stroke:none;font-family:Sans"
       x="513.57141"
       y="1003.0765"
       id="text4062"
       sodipodi:linespacing="125%"><tspan
         sodipodi:role="line"
         id="tspan4064"
         x="513.57141"
         y="1003.0765"
         style="font-size:100px;fill:#ffffff;fill-opacity:1">15:13</tspan></text>
    <rect
       ry="0"
       y="935.8092"
       x="882.73273"
       height="98.820335"
       width="118.82033"
       id="rect4066"
       style="fill:#214eff;fill-opacity:1;stroke:#005cff;stroke-width:1.17967296;stroke-linecap:round;stroke-miterlimit:4;stroke-opacity:1;stroke-dasharray:none" />
    <path
       id="path4068"
       d="m -115.85305,712.89563 c -13.11518,0 -23.74715,-10.63198 -23.74715,-23.74727 0,-11.11447 7.63565,-20.44563 17.94741,-23.03385 -4.24452,4.29003 -6.86544,10.18967 -6.86544,16.70131 0,13.11519 10.63197,23.74721 23.74726,23.74721 2.00071,0 3.94362,-0.2475 5.799733,-0.7134 -4.304323,4.3506 -10.278263,7.046 -16.881813,7.046 z m 8.77686,-11.95189 -6.65004,0 0,-0.88901 3.73602,-4.87433 -3.29272,0 0,-1.62561 6.20674,0 0,1.06911 -3.53982,4.69433 3.53982,0 0,1.62551 z m 6.29584,-9.49886 -8.55005,0 0,-1.14301 4.80343,-6.26704 -4.23343,0 0,-2.09002 7.98005,0 0,1.37451 -4.55113,6.03554 4.55113,0 0,2.09002 z m -5.97354,-11.08208 -10.45007,0 0,-1.3969 5.87094,-7.65976 -5.17423,0 0,-2.55451 9.75336,0 0,1.68001 -5.56243,7.37675 5.56243,0 0,2.55441 z"
       inkscape:connector-curvature="0"
       style="fill:#ffffff;fill-opacity:1;stroke-width:0.2;stroke-linejoin:round" />
    <rect
       style="fill:#214eff;fill-opacity:1;stroke:#005cff;stroke-width:2.14802194;stroke-linecap:round;stroke-miterlimit:4;stroke-opacity:1;stroke-dasharray:none"
       id="rect4070"
       width="397.85199"
       height="97.851982"
       x="20.359726"
       y="710.57904"
       ry="0" />
    <path
       id="path4080"
       d="m -283.14286,702.64791 32,0 0,38 -3,0 0,-35 -26,0 0,35 -3,0 0,-38 z m 16,13.0001 c 2.7614,0 5,2.2385 5,4.9999 0,2.0694 -1.2572,3.8451 -3.0494,4.6052 l 1.0494,8.3948 -6,0 1.0493,-8.3948 c -1.7922,-0.7601 -3.0493,-2.5358 -3.0493,-4.6052 0,-2.7614 2.2385,-4.9999 5,-4.9999 z m 9,5.9999 c 1.1045,0 2,0.8955 2,2 0,1.1046 -0.8955,2 -2,2 -1.1046,0 -2,-0.8954 -2,-2 0,-1.1045 0.8954,-2 2,-2 z"
       inkscape:connector-curvature="0"
       style="fill:#000000;fill-opacity:1;stroke-width:0.2;stroke-linejoin:round" />
    <path
       id="path4091"
       d="m -283.14286,625.50505 32,0 0,38 -3,0 0,-35 -4,0 0,28 -22,7 -3,0 0,-38 z m 23,30.75 0,-27.75 -20,0 0,33.7 20,-5.95 z m -10.25,-21.5412 c 2.071,-0.7088 3.75,0.8957 3.75,3.5837 0,2.0143 -0.9429,4.0655 -2.287,5.2653 l 0.787,7.9023 -4.5,1.5399 0.787,-8.4409 c -1.3442,-0.2798 -2.287,-1.6857 -2.287,-3.7 0,-2.688 1.6789,-5.4416 3.75,-6.1503 z m 6.75,3.5304 c 0.8284,-0.2835 1.5,0.3583 1.5,1.4335 0,1.0752 -0.6716,2.1767 -1.5,2.4602 -0.8284,0.2834 -1.5,-0.3583 -1.5,-1.4335 0,-1.0752 0.6716,-2.1767 1.5,-2.4602 z"
       inkscape:connector-curvature="0"
       style="fill:#000000;fill-opacity:1;stroke-width:0.2;stroke-linejoin:round" />
    <path
       id="path4102"
       d="m -66.285714,963.00506 6,0.5 0,-9 -6,-6 0,14.5 z m 6,2.5 -6,0.5 0,14.5 6,-6 0,-9 z m 22,-2 6,-0.5 0,-14.5 -6,6 0,9 z m 6,2.5 -6,-0.5 0,9 6,6 0,-14.5 z m 3,-20.5 0,38 -3,0 -6,-6 -22,0 -6,6 -3,0 0,-38 3,0 6,6 22,0 6,-6 3,0 z m -12,9 -16,0 0,20 16,0 0,-20 z"
       inkscape:connector-curvature="0"
       style="fill:#000000;fill-opacity:1;stroke-width:0.2;stroke-linejoin:round" />
    <path
       id="path4113"
       d="m -241.54165,533.20747 c 4.8095,0 8.7083,8.5065 8.7083,19 0,10.4934 -3.8988,19 -8.7083,19 -1.6972,0 -3.281,-1.0593 -4.6201,-2.8915 -3.0442,-3.2839 -6.207,-8.1919 -10.4216,-8.1919 -3.1666,0 -0.3958,3.1667 -0.3958,6.3334 0,3.1666 0.3958,7.9166 -4.3542,7.9166 -4.75,0 -9.5,-4.75 -7.9166,-6.3333 1.5833,-1.5833 1.5833,-7.9167 1.5833,-7.9167 -4.75,0 -9.5,-3.1666 -9.5,-7.9166 0,-4.75 4.75,-9.5 17.4167,-9.5 12.6666,0 10.2916,-9.5 18.2083,-9.5 z m -8.7083,19 c 0,-4.6664 0.771,-8.9399 2.0502,-12.2471 -2.4147,2.7477 -0.4669,4.3304 -11.398,6.066 -10.2308,0 -14.0673,2.649 -14.0673,6.4856 0,3.8365 4.2324,4.8109 8.0689,4.8109 0,0 1.1875,9.0737 -0.0913,10.3525 -1.2789,1.2789 0.1827,3.1362 4.0192,3.1362 3.8365,0 1.1418,-4.6282 1.1418,-7.1859 0,-2.5577 -0.8069,-6.6682 3.4864,-6.6987 8.3734,3.1971 5.5422,2.6533 8.0912,5.2762 -0.8249,-2.9037 -1.3011,-6.3284 -1.3011,-9.9957 z m 9.5,-15.8334 c -2.1304,0 -3.9332,4.6748 -4.5355,11.1147 4.3355,0.2721 7.7021,2.2809 7.7021,4.7187 0,2.4377 -3.3666,4.4465 -7.7021,4.7186 0.6023,6.4399 2.4051,11.1147 4.5355,11.1147 2.6233,0 4.75,-7.0888 4.75,-15.8333 0,-8.7445 -2.1267,-15.8334 -4.75,-15.8334 z m -1.5834,0 c -3.4978,0 -6.3333,7.0889 -6.3333,15.8334 0,8.7445 2.8355,15.8333 6.3333,15.8333 l 0.4223,-0.0346 c -2.8884,-0.5432 -5.1723,-7.4089 -5.1723,-15.7987 0,-8.3898 2.2839,-15.2556 5.1722,-15.7987 l -0.4222,-0.0347 z"
       inkscape:connector-curvature="0"
       style="fill:#000000;fill-opacity:1;stroke-width:0.2;stroke-linejoin:round" />
    <path
       id="path4124"
       d="m -23.232143,514.21934 0,-8 -24.75,0 10,-10 -10.5,0 -14,14 14,14 10.5,0 -10,-10 24.75,0 z"
       inkscape:connector-curvature="0"
       style="fill:#ffffff;fill-opacity:1;stroke-width:0.20000000000000001;stroke-linejoin:round"
       inkscape:export-filename="M:\RobDev\Projects\HomeAutomation\WallTablet\Software\HomeTabletLocalApp\www\img\back.png"
       inkscape:export-xdpi="160.71428"
       inkscape:export-ydpi="160.71428" />
    <path
       id="path4135"
       d="m -69.625,550.50506 0,8 24.75,0 -10,10 10.5,0 14,-14 -14,-14 -10.5,0 10,10 -24.75,0 z"
       inkscape:connector-curvature="0"
       style="fill:#000000;fill-opacity:1;stroke-width:0.2;stroke-linejoin:round" />
    <path
       id="path4146"
       d="m -281.85714,486.9872 8,0 0,-24.75 10,10 0,-10.5 -14,-14 -14,14 0,10.5 10,-10 0,24.75 z"
       inkscape:connector-curvature="0"
       style="fill:#000000;fill-opacity:1;stroke-width:0.2;stroke-linejoin:round" />
    <path
       id="path4157"
       d="m -226.71429,454.88006 -8,0 0,24.75 -10,-10 0,10.5 14,14 14,-14 0,-10.5 -10,10 0,-24.75 z"
       inkscape:connector-curvature="0"
       style="fill:#000000;fill-opacity:1;stroke-width:0.2;stroke-linejoin:round" />
    <path
       id="path2997"
       d="m -217.85709,763.57644 c 0.8643,0 1.7109,0.0756 2.5337,0.2206 l 2.0938,-5.1825 5.5626,2.2489 -2.0937,5.1822 c 1.5509,1.0457 2.8887,2.3835 3.9344,3.9344 l 5.1822,-2.0937 2.2489,5.5626 -5.1825,2.0939 c 0.145,0.8227 0.2206,1.6693 0.2206,2.5336 0,0.8643 -0.0756,1.7109 -0.2206,2.5337 l 5.1825,2.0938 -2.2489,5.5626 -5.1822,-2.0937 c -0.9513,1.4109 -2.1443,2.6454 -3.5196,3.6441 l 2.2732,5.1057 -5.4803,2.4429 -2.2734,-5.1063 c -0.9774,0.2078 -1.9913,0.3172 -3.0307,0.3172 -0.8643,0 -1.7109,-0.0756 -2.5336,-0.2206 l -2.0939,5.1826 -5.5626,-2.249 2.0937,-5.1821 c -1.5509,-1.0458 -2.8887,-2.3836 -3.9345,-3.9345 l -5.1821,2.0937 -2.249,-5.5626 5.1826,-2.0939 c -0.145,-0.8227 -0.2206,-1.6693 -0.2206,-2.5336 0,-0.8643 0.0756,-1.7109 0.2206,-2.5336 l -5.1826,-2.0939 2.249,-5.5626 5.1821,2.0937 c 0.9514,-1.4109 2.1444,-2.6454 3.5198,-3.6442 l -2.2732,-5.1057 5.4802,-2.4428 2.2735,5.1063 c 0.9774,-0.2078 1.9912,-0.3172 3.0306,-0.3172 z m 0,4.5 c -5.5229,0 -10,4.4772 -10,10 0,5.5229 4.4771,10 10,10 5.5228,0 10,-4.4771 10,-10 0,-5.5228 -4.4772,-10 -10,-10 z"
       inkscape:connector-curvature="0"
       style="fill:#000000;fill-opacity:1;stroke-linejoin:round" />
    <path
       style="fill:#ffffff;fill-opacity:1;stroke-linejoin:round"
       inkscape:connector-curvature="0"
       d="m 945.53814,963.75849 c 1.33229,0 2.6373,0.11653 3.90562,0.34005 l 3.22753,-7.98867 8.57457,3.46661 -3.22737,7.9882 c 2.39066,1.61192 4.45284,3.6741 6.06476,6.06476 l 7.9882,-3.22737 3.46661,8.57457 -7.98867,3.22769 c 0.22352,1.26816 0.34005,2.57317 0.34005,3.90546 0,1.33229 -0.11653,2.6373 -0.34005,3.90562 l 7.98867,3.22753 -3.46661,8.57456 -7.9882,-3.22735 c -1.4664,2.17485 -3.30538,4.07785 -5.42536,5.61725 l 3.50407,7.8703 -8.44772,3.7657 -3.50437,-7.8713 c -1.50663,0.3204 -3.06953,0.489 -4.67173,0.489 -1.33229,0 -2.6373,-0.1165 -3.90547,-0.34 l -3.22768,7.9888 -8.57458,-3.4668 3.22737,-7.988 c -2.39066,-1.6121 -4.45284,-3.6743 -6.06491,-6.06495 l -7.98805,3.22735 -3.46676,-8.57456 7.98882,-3.22768 c -0.22351,-1.26817 -0.34005,-2.57318 -0.34005,-3.90547 0,-1.33229 0.11654,-2.6373 0.34005,-3.90546 l -7.98882,-3.22769 3.46676,-8.57457 7.98805,3.22737 c 1.46656,-2.17486 3.30553,-4.0778 5.42567,-5.61742 l -3.50407,-7.87028 8.44756,-3.7655 3.50453,7.8712 c 1.50663,-0.32032 3.06937,-0.48895 4.67158,-0.48895 z m 0,6.93661 c -8.51338,0 -15.4147,6.90147 -15.4147,15.41469 0,8.51338 6.90132,15.41471 15.4147,15.41471 8.51322,0 15.41469,-6.90133 15.41469,-15.41471 0,-8.51322 -6.90147,-15.41469 -15.41469,-15.41469 z"
       id="path4172" />
    <path
       style="fill:#ffffff;fill-opacity:1;stroke-width:0.2;stroke-linejoin:round"
       d="m 48.578684,730.64791 4.73684,0 0,55.26316 61.578946,0 0,4.73684 -66.315786,0 0,-60 z"
       id="path4178" />
    <path
       style="fill:none;stroke:#ffffff;stroke-width:5;stroke-linecap:butt;stroke-linejoin:miter;stroke-miterlimit:4;stroke-opacity:1;stroke-dasharray:none"
       d="m 141.5,732.14791 0,55.71429 64.28572,0 0,-29.28572 -37.14287,0 0,-26.42857 z"
       id="path4180"
       inkscape:connector-curvature="0"
       sodipodi:nodetypes="ccccccc"
       inkscape:export-filename="M:\RobDev\Projects\HomeAutomation\WallTablet\Software\HomeTabletLocalApp\www\img\floorplan.png"
       inkscape:export-xdpi="103.75708"
       inkscape:export-ydpi="103.75708" />
    <path
       style="fill:none;stroke:#ffffff;stroke-width:2;stroke-linecap:butt;stroke-linejoin:miter;stroke-miterlimit:4;stroke-opacity:1;stroke-dasharray:none"
       d="m 168.36358,763.0704 8.53182,13.28672"
       id="path4182"
       inkscape:connector-curvature="0"
       sodipodi:nodetypes="cc"
       inkscape:export-filename="M:\RobDev\Projects\HomeAutomation\WallTablet\Software\HomeTabletLocalApp\www\img\floorplan.png"
       inkscape:export-xdpi="103.75708"
       inkscape:export-ydpi="103.75708" />
    <path
       style="fill:none;stroke:#ffffff;stroke-width:5;stroke-linecap:square;stroke-linejoin:miter;stroke-miterlimit:4;stroke-opacity:1;stroke-dasharray:none"
       d="m 169.14286,785.19903 0,-4.40826"
       id="path4184"
       inkscape:connector-curvature="0"
       sodipodi:nodetypes="cc"
       inkscape:export-filename="M:\RobDev\Projects\HomeAutomation\WallTablet\Software\HomeTabletLocalApp\www\img\floorplan.png"
       inkscape:export-xdpi="103.75708"
       inkscape:export-ydpi="103.75708" />
    <path
       inkscape:connector-curvature="0"
       id="path4190"
       d="m 168.63779,761.46045 0,-3.27184"
       style="fill:none;stroke:#ffffff;stroke-width:5;stroke-linecap:square;stroke-linejoin:miter;stroke-miterlimit:4;stroke-opacity:1;stroke-dasharray:none"
       sodipodi:nodetypes="cc"
       inkscape:export-filename="M:\RobDev\Projects\HomeAutomation\WallTablet\Software\HomeTabletLocalApp\www\img\floorplan.png"
       inkscape:export-xdpi="103.75708"
       inkscape:export-ydpi="103.75708" />
    <path
       id="path4194"
       d="m -50.430731,746.07913 0,-18.00265 -2.000216,2.00032 -3.000424,-5.00074 19.00275,-15.00222 7.001055,5.52715 0,-3.77693 4.000531,-0.75011 0,7.68536 8.001263,6.31675 -3.000524,5.00074 -2.000215,-2.00032 0,18.00265 -28.00422,0 z m 14.00211,-29.08763 -11.001587,9.08467 0,17.00253 6.000847,0 0,-11.00148 10.001479,0 0,11.00148 6.000847,0 0,-17.00253 -11.001586,-9.08467 z"
       inkscape:connector-curvature="0"
       style="fill:#ffffff;fill-opacity:1;stroke-width:0.20000000000000001;stroke-linejoin:round" />
  </g>
</svg>
